<?xml version="1.0" encoding="UTF-8" standalone="no"?>
<!-- Created with Inkscape (http://www.inkscape.org/) -->

<svg
   width="1200"
   height="1200"
   viewBox="0 0 317.5 317.50003"
   version="1.1"
   id="svg8"
   inkscape:version="1.2.1 (9c6d41e410, 2022-07-14)"
   sodipodi:docname="隠岐諸島地図プレーン.svg"
   inkscape:export-filename="E:\projects\AndroidStudio\OKISchedule\app\src\main\res\drawable\map_scale2_oki.png"
   inkscape:export-xdpi="80"
   inkscape:export-ydpi="80"
   xmlns:inkscape="http://www.inkscape.org/namespaces/inkscape"
   xmlns:sodipodi="http://sodipodi.sourceforge.net/DTD/sodipodi-0.dtd"
   xmlns="http://www.w3.org/2000/svg"
   xmlns:svg="http://www.w3.org/2000/svg"
   xmlns:rdf="http://www.w3.org/1999/02/22-rdf-syntax-ns#"
   xmlns:cc="http://creativecommons.org/ns#"
   xmlns:dc="http://purl.org/dc/elements/1.1/">
  <defs
     id="defs2" />
  <sodipodi:namedview
     id="base"
     pagecolor="#ffffff"
     bordercolor="#666666"
     borderopacity="1.0"
     inkscape:pageopacity="0.0"
     inkscape:pageshadow="2"
     inkscape:zoom="0.175"
     inkscape:cx="2.8571429"
     inkscape:cy="105.71429"
     inkscape:document-units="mm"
     inkscape:current-layer="layer1"
     showgrid="false"
     units="px"
     inkscape:window-width="1920"
     inkscape:window-height="1051"
     inkscape:window-x="-9"
     inkscape:window-y="-9"
     inkscape:window-maximized="1"
     inkscape:showpageshadow="2"
     inkscape:pagecheckerboard="0"
     inkscape:deskcolor="#d1d1d1" />
  <metadata
     id="metadata5">
    <rdf:RDF>
      <cc:Work
         rdf:about="">
        <dc:format>image/svg+xml</dc:format>
        <dc:type
           rdf:resource="http://purl.org/dc/dcmitype/StillImage" />
      </cc:Work>
    </rdf:RDF>
  </metadata>
  <g
     inkscape:label="レイヤー 1"
     inkscape:groupmode="layer"
     id="layer1"
     transform="translate(0,20.500027)">
    <g
       id="g989"
       inkscape:export-filename="C:\Users\hm\Documents\CocosProjects\TTable-OKI\地図\g989.png"
       inkscape:export-xdpi="65.559998"
       inkscape:export-ydpi="65.559998"
       transform="matrix(1.2803555,0,0,1.2803555,-20.834334,218.83406)">
      <rect
         y="-226.99083"
         x="-63.314999"
         height="550.06689"
         width="390.8833"
         id="rect877"
         style="opacity:1;fill:#3c98ff;fill-opacity:0.53684238;stroke:none;stroke-width:0.76463109;stroke-miterlimit:4;stroke-dasharray:none;stroke-opacity:1" />
      <path
         d="M 151.54132,-36.86945 A 50.119049,45.205357 0 0 1 103.8448,8.283069 50.119049,45.205357 0 0 1 51.537411,-32.50451 a 50.119049,45.205357 0 0 1 42.63991,-49.095495 50.119049,45.205357 0 0 1 56.429439,36.041467"
         sodipodi:open="true"
         sodipodi:end="6.0897679"
         sodipodi:start="0"
         sodipodi:ry="45.205357"
         sodipodi:rx="50.119049"
         sodipodi:cy="-36.86945"
         sodipodi:cx="101.42227"
         sodipodi:type="arc"
         id="path819"
         style="opacity:1;fill:#3cffff;fill-opacity:0.96153846;stroke:none;stroke-width:1.36484277;stroke-miterlimit:4;stroke-dasharray:none;stroke-opacity:1" />
      <path
         d="m 227.60746,-105.84283 a 51.837978,51.837978 0 0 1 -49.33236,51.777391 51.837978,51.837978 0 0 1 -54.10137,-46.772011 51.837978,51.837978 0 0 1 44.10233,-56.29889 51.837978,51.837978 0 0 1 58.36479,41.32954"
         sodipodi:open="true"
         sodipodi:end="6.0897679"
         sodipodi:start="0"
         sodipodi:ry="51.837978"
         sodipodi:rx="51.837978"
         sodipodi:cy="-105.84283"
         sodipodi:cx="175.76949"
         sodipodi:type="arc"
         id="path819-9"
         style="opacity:1;fill:#3cffff;fill-opacity:0.96153846;stroke:none;stroke-width:1.48639536;stroke-miterlimit:4;stroke-dasharray:none;stroke-opacity:1" />
    </g>
    <path
       style="fill:#80ff80;fill-opacity:1;stroke:#000000;stroke-width:0.70191801;stroke-opacity:1"
       d="m -32.112316,602.75731 c 9.504824,-9.73574 3.476836,-32.00849 -11.654661,-31.8786 -12.619987,-7.74302 10.022253,-18.21859 18.84815,-14.9744 2.617208,-11.60633 19.8565923,8.81631 24.94666327,-4.12465 -1.67774397,-4.87005 -12.76744027,-8.45446 -0.419608,-7.90506 6.16785503,1.66685 10.39025503,-2.67001 15.26248873,-5.59563 9.825947,-11.84848 24.61403,-13.33116 39.59456,-13.17963 9.092458,-3.5146 21.406709,-3.55843 28.716748,-7.01969 -4.567649,-15.7765 17.624695,-3.77109 23.558575,-9.07871 -2.05727,-7.951 9.09145,-5.45111 5.64107,-15.07109 10.68637,-6.00485 23.2753,1.8453 33.95227,5.454 11.87831,5.07265 19.818,-9.29541 31.99051,-6.7565 12.15577,0.36202 32.65686,-1.20265 38.3611,8.49599 -9.05688,7.23855 -29.35996,-1.66743 -32.65044,10.00078 8.00979,7.70372 17.81514,14.58586 25.86626,23.32504 12.2463,6.53074 24.84203,15.44706 39.53941,11.65569 14.79459,1.1813 4.77081,-23.18839 21.22078,-18.29415 13.88818,-4.89315 26.14755,-12.75716 41.73955,-13.31859 11.68227,-0.99092 21.36047,8.55842 32.97041,8.07045 v 82.12441 H -33.926869 c 0.604851,-0.64323 1.209702,-1.28643 1.814553,-1.92966 z M 213.72299,564.67825 c 6.11363,-15.56189 -28.58705,-10.89847 -28.58705,-24.55819 -8.47955,-8.47954 -10.86873,-18.10439 -1.10083,-28.99593 -10.20972,0.12522 -29.78384,16.69997 -40.34876,18.72987 -1.85081,12.5359 11.90567,12.1891 16.41222,4.08712 11.39725,3.65604 0.95922,-10.87205 13.34848,-5.81102 5.46297,3.56457 -5.50353,8.56609 -1.93042,15.31569 -11.41806,-9.50467 -27.06911,6.95485 -40.73735,3.97791 -11.86476,4.38167 -7.77874,0.88641 9.43553,2.86165 23.14266,-17.09629 17.34625,9.24226 27.80731,6.7454 6.60035,-5.47553 15.51212,-10.57511 21.1401,-0.91303 6.98661,4.62499 18.85573,4.38193 23.42016,10.02964 l 0.42758,-1.03759 0.71303,-0.43154 z m -132.300335,0.25547 c 9.18031,-1.71807 15.56761,-5.85184 25.247475,-5.77727 11.8152,-3.34069 8.55627,-15.12211 -2.7482,-14.54429 -12.932995,-6.41025 -28.425628,-5.92301 -41.065522,1.24473 -10.299225,2.22967 -25.41714,5.18103 -13.928594,15.31442 6.800167,8.68062 22.884116,2.87555 32.494841,3.76241 z"
       id="path843"
       inkscape:connector-curvature="0"
       sodipodi:nodetypes="ccccccccccccccccccccccccccccccccccccccccccc" />
    <g
       id="g853"
       style="fill:#80ff80;fill-opacity:1">
      <path
         sodipodi:nodetypes="cccccccccccccccccccccccccccccccccc"
         inkscape:connector-curvature="0"
         id="path838"
         d="m 83.811304,197.30774 -11.856626,-24.43915 5.055832,-6.53777 -0.248267,5.61034 3.088181,1.58948 -0.680209,-7.3325 8.559192,-0.6596 -1.01444,-12.75364 4.509247,9.05203 -3.494807,3.70161 3.462042,9.26582 5.68634,9.4369 12.824511,-1.45183 2.79499,-12.07059 -8.84429,-11.15872 2.16768,-7.24344 15.51347,-2.79484 6.50389,-12.81738 -7.51328,-2.45116 -15.52773,5.57752 -13.484596,-4.22591 -4.597467,17.17999 -5.335543,-2.20709 -4.464321,3.53795 -0.362959,-2.90367 1.209862,-3.14564 -4.839441,1.8148 -11.130709,12.34057 4.597468,1.45183 -6.775215,3.3876 -1.479929,15.43316 5.093571,-0.35699 -4.637723,1.69874 z"
         style="fill:#80ff80;fill-opacity:1;stroke:#000000;stroke-width:0.3387607px;stroke-linecap:butt;stroke-linejoin:miter;stroke-opacity:1" />
    </g>
    <g
       id="g846"
       style="fill:#80ff80;fill-opacity:1">
      <path
         sodipodi:nodetypes="cccccccccccccccc"
         inkscape:connector-curvature="0"
         id="path842"
         d="m 88.444891,216.51369 9.752703,-3.07981 2.224296,3.76421 1.711,-3.42201 2.3954,3.42199 1.0266,-7.5284 4.61971,4.61972 6.1596,-1.5399 0.81272,6.11681 4.66247,-0.12832 -1.19769,-8.8972 4.44859,-4.6197 -11.97699,2.90871 -11.46371,-7.52841 -15.583986,-0.38494 z"
         style="fill:#80ff80;fill-opacity:1;stroke:#000000;stroke-width:0.3387607px;stroke-linecap:butt;stroke-linejoin:miter;stroke-opacity:1" />
      <path
         inkscape:connector-curvature="0"
         id="path844"
         d="m 111.80005,216.2998 2.5665,-0.6844 -0.38498,3.89253 z"
         style="fill:#80ff80;fill-opacity:1;stroke:#000000;stroke-width:0.3387607px;stroke-linecap:butt;stroke-linejoin:miter;stroke-opacity:1" />
      <path
         sodipodi:nodetypes="ccccc"
         inkscape:connector-curvature="0"
         id="path846"
         d="m 127.84067,215.57264 -0.8555,1.88209 0.81273,1.36881 0.98381,-1.62547 z"
         style="fill:#80ff80;fill-opacity:1;stroke:#000000;stroke-width:0.3387607px;stroke-linecap:butt;stroke-linejoin:miter;stroke-opacity:1" />
    </g>
    <g
       id="g850"
       style="fill:#80ff80;fill-opacity:1">
      <path
         sodipodi:nodetypes="cccccccccccccccccccccccccccccccccccccccccccc"
         inkscape:connector-curvature="0"
         id="path848"
         d="m 120.86835,165.69698 3.56893,10.49937 -1.67452,0.80361 1.99685,0.76565 -1.98589,8.08322 0.23337,9.96175 4.95478,-2.09117 -1.66592,-2.18277 6.32,-1.69527 -2.40547,-2.63738 10.17082,0.37511 -2.75124,-3.33896 3.98541,-1.60218 -4.12715,-2.2329 7.19835,-0.66719 -8.42185,-4.77864 10.01187,2.287 -1.47607,-5.76709 3.44372,1.8318 3.50755,-0.5133 1.45434,-2.90871 5.04746,2.7376 2.2243,-1.28324 -8.46945,-4.36305 -6.92956,1.79655 -1.45434,-5.73186 2.82315,-1.28325 -0.59885,-8.29835 3.2509,-1.19769 -3.42201,-2.22431 3.42201,-2.2243 -3.29368,-2.7376 -8.59778,-0.68441 -4.87635,2.13874 -2.22429,3.50756 0.92281,6.20111 -1.63227,2.44123 -2.11547,-2.11684 0.001,-6.65382 -2.0532,1.15492 -0.5133,6.58735 -2.52843,-2.82934 -5.42772,4.79699 z"
         style="fill:#80ff80;fill-opacity:1;stroke:#000000;stroke-width:0.3387607px;stroke-linecap:butt;stroke-linejoin:miter;stroke-opacity:1" />
      <path
         sodipodi:nodetypes="ccccccc"
         inkscape:connector-curvature="0"
         id="path850"
         d="m 162.49133,143.28751 -3.32712,5.89806 2.2685,0.93764 1.20986,3.87155 3.35736,-5.47461 -2.23824,-1.37622 z"
         style="fill:#80ff80;fill-opacity:1;stroke:#000000;stroke-width:0.3387607px;stroke-linecap:butt;stroke-linejoin:miter;stroke-opacity:1" />
    </g>
    <g
       id="g857"
       style="fill:#80ff80;fill-opacity:1">
      <path
         inkscape:connector-curvature="0"
         id="path852"
         d="m 167.59824,134.30239 5.46585,-3.6164 -4.06436,-0.26788 z"
         style="fill:#80ff80;fill-opacity:1;stroke:#000000;stroke-width:0.27126631px;stroke-linecap:butt;stroke-linejoin:miter;stroke-opacity:1" />
      <path
         sodipodi:nodetypes="ccccccccccccccccccccccccccccccccc"
         inkscape:connector-curvature="0"
         id="path854"
         d="m 210.26811,115.56468 16.7678,1.71099 -0.34221,-11.1215 -6.1596,-3.2509 6.6729,-1.02659 2.5665,-8.554996 3.7642,4.961885 -3.7642,6.330701 13.0036,-3.76419 7.8706,-19.505408 -0.0623,-15.195643 -5.61513,-4.550268 -2.87752,-14.131886 -14.44118,-12.25336 -19.16027,-3.859389 -2.70614,-4.343337 -5.97634,7.953633 -19.31208,4.289652 -14.3724,15.056801 6.95134,2.962371 -7.97794,0.801836 0.3422,13.003597 -3.76421,4.106395 4.10641,2.395404 -2.0532,9.239391 5.81739,5.475213 2.39541,9.923788 5.8174,5.81741 5.81742,0.34219 0.3422,6.50181 21.2164,5.47521 3.07979,-8.89722 z"
         style="fill:#80ff80;fill-opacity:1;stroke:#000000;stroke-width:0.3387607px;stroke-linecap:butt;stroke-linejoin:miter;stroke-opacity:1" />
    </g>
    <path
       style="fill:#000000;stroke-width:0.11189853"
       d="m 27.21287,579.00343 c -0.041,-0.0663 -0.172279,-0.12061 -0.291736,-0.12061 -0.201761,0 -0.217193,-0.0869 -0.217193,-1.22463 0,-1.55029 0.06121,-1.63162 1.607286,-2.13535 l 1.103742,-0.3596 -0.07345,-3.9869 c -0.0404,-2.1928 -0.100124,-4.17113 -0.132735,-4.39628 l -0.05929,-0.40938 -0.971006,0.25995 c -0.534055,0.14298 -2.884472,0.78988 -5.223152,1.43754 -5.313438,1.4715 -4.826986,1.35987 -5.032127,1.15473 -0.137883,-0.13788 -0.171156,-0.48684 -0.171156,-1.79507 0,-0.96191 0.04562,-1.65212 0.111903,-1.69308 0.06155,-0.038 0.113414,-0.15431 0.115258,-0.25837 0.0024,-0.13498 1.586705,-1.01759 5.526203,-3.07866 l 5.522837,-2.88943 -0.05945,-3.54968 c -0.06563,-3.91846 -0.04931,-4.0511 0.590393,-4.79844 0.459094,-0.53635 0.772349,-0.61264 2.515873,-0.61264 2.075561,0 2.404784,0.15256 2.942838,1.36361 0.210365,0.47349 0.218929,0.68378 0.165055,4.05266 l -0.05682,3.55325 5.56771,2.9214 c 5.250625,2.75503 5.571599,2.94084 5.635972,3.26272 0.08855,0.44276 0.08883,3.26269 3.36e-4,3.49328 -0.03736,0.0973 -0.150653,0.17568 -0.251772,0.17405 -0.10111,-0.001 -2.626031,-0.67535 -5.610924,-1.49716 l -5.42708,-1.49418 -0.07071,0.40614 c -0.0389,0.22337 -0.106781,2.20051 -0.150859,4.39362 l -0.08015,3.98748 1.101997,0.35903 c 1.544114,0.50306 1.605539,0.58474 1.605539,2.13476 0,1.10469 -0.01973,1.22463 -0.201418,1.22463 -0.110777,0 -0.257889,0.0565 -0.326911,0.12548 -0.124322,0.12432 -0.575333,0.10448 -2.269136,-0.0999 -0.400036,-0.0483 -1.12285,-0.2335 -1.606252,-0.41161 l -0.87891,-0.32385 -0.967416,0.32119 c -1.325529,0.44008 -3.828298,0.76011 -3.98329,0.50933 z"
       id="path868"
       inkscape:connector-curvature="0" />
    <path
       style="fill:#000000;stroke-width:0.3387607"
       d=""
       id="path866"
       inkscape:connector-curvature="0" />
    <path
       style="fill:#000000;stroke-width:0.11189853"
       d="m 201.51153,124.29043 c -0.041,-0.0663 -0.17227,-0.12061 -0.29173,-0.12061 -0.20177,0 -0.2172,-0.0869 -0.2172,-1.22463 0,-1.55029 0.0612,-1.63162 1.60728,-2.13535 l 1.10375,-0.3596 -0.0735,-3.9869 c -0.0405,-2.1928 -0.10013,-4.17113 -0.13274,-4.39628 l -0.0593,-0.40938 -0.97101,0.25995 c -0.53405,0.14297 -2.88446,0.78987 -5.22314,1.43754 -5.31344,1.4715 -4.827,1.35987 -5.03213,1.15473 -0.13789,-0.13788 -0.17116,-0.48684 -0.17116,-1.79507 0,-0.96191 0.0456,-1.65212 0.1119,-1.69308 0.0616,-0.038 0.11344,-0.15431 0.11523,-0.25838 0.003,-0.13497 1.58671,-1.01758 5.52621,-3.07865 l 5.52284,-2.88943 -0.0594,-3.54968 c -0.0657,-3.918465 -0.0493,-4.051095 0.5904,-4.798435 0.45908,-0.53636 0.77235,-0.61264 2.51587,-0.61264 2.07556,0 2.40478,0.15255 2.94283,1.3636 0.21037,0.47349 0.21893,0.68379 0.16505,4.052655 l -0.0568,3.55326 5.56771,2.9214 c 5.25062,2.75503 5.5716,2.94083 5.63597,3.26272 0.0886,0.44276 0.0889,3.26269 3.4e-4,3.49328 -0.0374,0.0973 -0.15065,0.17568 -0.25177,0.17405 -0.10115,-0.001 -2.62604,-0.67535 -5.61093,-1.49716 l -5.42708,-1.49419 -0.0707,0.40615 c -0.0389,0.22337 -0.10678,2.2005 -0.15085,4.39361 l -0.0802,3.98749 1.10199,0.35903 c 1.54412,0.50306 1.60554,0.58473 1.60554,2.13476 0,1.10469 -0.0197,1.22463 -0.20141,1.22463 -0.11075,0 -0.25789,0.0565 -0.32692,0.12548 -0.12432,0.12432 -0.57532,0.10447 -2.26913,-0.0999 -0.40004,-0.0483 -1.12285,-0.2335 -1.60626,-0.41161 l -0.8789,-0.32385 -0.96742,0.32119 c -1.32553,0.44008 -3.82829,0.7601 -3.98329,0.50932 z"
       id="path868-6"
       inkscape:connector-curvature="0" />
    <g
       transform="matrix(1.2798227,0,0,1.2798227,-20.751459,218.948)"
       id="g856">
      <path
         sodipodi:nodetypes="csc"
         inkscape:connector-curvature="0"
         id="path847"
         d="m 155.5496,213.84161 c 3.10545,-5.12399 31.85944,-15.58908 41.58684,-43.74101 23.4555,-67.88223 21.79222,-212.340164 -3.40795,-261.448181"
         style="fill:none;stroke:#000000;stroke-width:0.79374999;stroke-linecap:butt;stroke-linejoin:miter;stroke-miterlimit:4;stroke-dasharray:none;stroke-opacity:1" />
      <path
         sodipodi:nodetypes="czc"
         inkscape:connector-curvature="0"
         id="path849"
         d="m 160.00982,228.28821 c 58.06788,7.11484 58.1329,-54.08351 59.37754,-76.50594 1.24464,-22.42243 -6.76006,-230.278661 -25.65887,-243.129851"
         style="fill:none;stroke:#000000;stroke-width:0.79374999;stroke-linecap:butt;stroke-linejoin:miter;stroke-miterlimit:4;stroke-dasharray:none;stroke-opacity:1" />
      <path
         sodipodi:nodetypes="cccccccc"
         inkscape:connector-curvature="0"
         id="path851"
         d="m 155.5496,213.84161 c 0,0 4.65675,-183.156192 -12.6746,-213.1749726 -10.33821,-32.6548174 -38.2809,-9.0270276 -38.2809,-9.0270276 6.94901,-41.0258728 -7.365372,-37.9345188 -7.365372,-37.9345188 0,0 12.710372,-11.643989 16.452142,-1.487747 -3.87541,-13.229842 15.58699,-26.389991 15.58699,-26.389991 28.9885,-10.349255 37.17149,12.637009 55.23984,10.08656 26.6523,-5.023135 9.22079,-27.261494 9.22079,-27.261494"
         style="fill:none;stroke:#000000;stroke-width:0.79374999;stroke-linecap:butt;stroke-linejoin:miter;stroke-miterlimit:4;stroke-dasharray:none;stroke-opacity:1" />
      <path
         sodipodi:nodetypes="ccc"
         inkscape:connector-curvature="0"
         id="path853"
         d="m 113.68087,-47.782658 c -15.558622,-13.921483 -2.59545,14.479394 -7.8421,37.422664 85.3298,-50.466889 165.74757,254.531004 54.17105,238.648194"
         style="fill:none;stroke:#000000;stroke-width:0.79374999;stroke-linecap:butt;stroke-linejoin:miter;stroke-miterlimit:4;stroke-dasharray:none;stroke-opacity:1" />
      <path
         sodipodi:nodetypes="ccc"
         inkscape:connector-curvature="0"
         d="M 43.706978,266.08467 179.83997,-89.061214 c 28.21629,12.868857 55.77112,25.454233 83.98741,38.32309"
         style="fill:none;stroke:#000000;stroke-width:1.32291663;stroke-linecap:butt;stroke-linejoin:miter;stroke-miterlimit:4;stroke-dasharray:3.96875, 3.96875;stroke-dashoffset:0;stroke-opacity:1"
         id="path887" />
    </g>
    <g
       transform="matrix(1.1277875,0,0,1.1277875,19.140592,220.56657)"
       id="g938">
      <path
         inkscape:connector-curvature="0"
         id="path855"
         d="m 61.240291,-47.834644 c -0.08176,-0.0478 -0.251262,-0.0876 -0.376678,-0.0883 -0.27887,-0.002 -0.515214,-0.43352 -0.515214,-0.94152 v -0.34178 l -0.56982,-0.0979 c -2.811166,-0.48303 -5.361713,-1.94328 -6.879432,-3.93865 -0.381041,-0.50096 -0.453184,-0.55477 -0.675608,-0.50393 -0.136958,0.0313 -0.438542,0.0768 -0.670186,0.10112 l -0.421171,0.0442 v -0.34886 c 0,-0.19187 0.133784,-1.25274 0.297297,-2.35748 0.163514,-1.10475 0.297298,-2.03881 0.297298,-2.07569 0,-0.0369 0.147402,-0.0671 0.327561,-0.0671 0.265735,0 0.700613,0.23835 2.304054,1.26284 1.087071,0.69456 2.009256,1.30608 2.0493,1.35892 0.04004,0.0529 0.07349,0.19697 0.07432,0.32027 0.0013,0.18192 -0.07321,0.24974 -0.394879,0.35975 -0.218018,0.0746 -0.396396,0.17992 -0.396396,0.23411 0,0.187 1.83497,1.69927 2.451661,2.0205 0.34008,0.17716 0.975553,0.4356 1.412162,0.57433 l 0.793835,0.25225 v -3.01893 -3.01892 h -1.786581 -1.78658 l 0.02757,-1.18636 0.02757,-1.18636 1.75901,-0.0236 1.759009,-0.0236 v -0.50634 c 0,-0.46703 -0.01908,-0.51051 -0.24573,-0.56004 -0.403483,-0.0882 -1.261161,-0.55944 -1.716494,-0.94318 -1.16992,-0.98597 -1.683513,-2.41804 -1.414336,-3.94366 0.202499,-1.1477 0.854856,-2.09029 1.932243,-2.7919 0.689523,-0.44904 1.039985,-0.50445 3.228101,-0.51039 2.388396,-0.006 2.927961,0.1373 3.929453,1.04721 1.374718,1.24902 1.709563,3.42889 0.779468,5.07441 -0.433892,0.76763 -1.349332,1.54281 -2.277347,1.92843 l -0.64779,0.26917 v 0.47014 0.47013 h 1.62703 c 0.894867,0 1.697569,0.0236 1.783784,0.0524 0.132142,0.0441 0.156754,0.23381 0.156754,1.20793 v 1.15557 h -1.783784 -1.783784 v 3.01518 3.01518 l 0.551276,-0.16513 c 0.734911,-0.22014 1.671963,-0.6393 2.24221,-1.00297 0.507257,-0.32349 1.864172,-1.55001 1.864172,-1.68502 0,-0.0461 -0.177924,-0.14901 -0.395388,-0.22853 -0.340927,-0.12467 -0.395528,-0.18174 -0.396397,-0.41433 -9.31e-4,-0.25178 0.135815,-0.35668 2.05289,-1.57463 1.656719,-1.05254 2.116645,-1.30488 2.378378,-1.30488 0.178465,0 0.324482,0.0302 0.324482,0.0671 0,0.0369 0.133783,0.97094 0.297297,2.07569 0.163513,1.10475 0.297297,2.16171 0.297297,2.3488 0,0.33215 -0.0083,0.34017 -0.351768,0.34017 -0.193472,0 -0.477902,-0.0568 -0.632066,-0.1262 l -0.280298,-0.1262 -0.456515,0.59773 c -0.577907,0.75668 -1.590064,1.69324 -2.432269,2.25061 -1.005414,0.66537 -2.673822,1.34587 -3.963817,1.61673 l -1.099178,0.23079 -1.98e-4,0.37098 c -1.99e-4,0.52083 -0.217202,0.84559 -0.615984,0.92196 -0.563295,0.10787 -1.90394,0.13895 -2.059846,0.0477 z m 1.441037,-16.64515 c 0.738443,-0.29204 1.247276,-1.03748 1.036947,-1.51914 -0.261255,-0.59827 -0.946019,-1.07967 -1.535777,-1.07967 -0.911868,0 -1.925212,1.01996 -1.646793,1.65754 0.218254,0.4998 1.054153,1.09297 1.546929,1.09774 0.109009,0.001 0.378421,-0.0694 0.598694,-0.15647 z"
         style="fill:#000000;stroke-width:0.09246813" />
      <path
         inkscape:connector-curvature="0"
         id="path855-2"
         d="m 100.59371,-41.63507 c -0.0818,-0.0478 -0.25126,-0.0876 -0.37668,-0.0883 -0.278872,-0.002 -0.515212,-0.43352 -0.515212,-0.94152 v -0.34178 l -0.56982,-0.0979 c -2.81117,-0.48303 -5.36172,-1.94328 -6.879438,-3.93865 -0.38104,-0.50096 -0.45318,-0.55477 -0.6756,-0.50393 -0.13696,0.0313 -0.43855,0.0768 -0.67019,0.10112 l -0.42117,0.0442 v -0.34886 c 0,-0.19187 0.13378,-1.25274 0.2973,-2.35748 0.16351,-1.10475 0.29729,-2.03881 0.29729,-2.07569 0,-0.0369 0.14741,-0.0671 0.32757,-0.0671 0.26573,0 0.70061,0.23835 2.304048,1.26284 1.08707,0.69456 2.00926,1.30608 2.0493,1.35892 0.04,0.0529 0.0735,0.19697 0.0743,0.32027 0.001,0.18192 -0.0732,0.24974 -0.39488,0.35975 -0.21802,0.0746 -0.3964,0.17992 -0.3964,0.23411 0,0.187 1.83497,1.69927 2.45167,2.0205 0.34008,0.17716 0.97555,0.4356 1.41216,0.57433 l 0.79383,0.25225 v -3.01893 -3.01892 h -1.78658 -1.78658 l 0.0276,-1.18636 0.0276,-1.18636 1.75901,-0.0236 1.75901,-0.0236 v -0.50634 c 0,-0.46703 -0.0191,-0.51051 -0.24573,-0.56004 -0.40348,-0.0882 -1.26116,-0.55943 -1.71649,-0.94317 -1.16992,-0.98597 -1.68352,-2.41804 -1.41434,-3.94366 0.2025,-1.1477 0.85486,-2.09029 1.93224,-2.7919 0.68953,-0.44904 1.03999,-0.50445 3.228102,-0.51039 2.3884,-0.006 2.92797,0.1373 3.92946,1.04721 1.37472,1.24902 1.70956,3.42889 0.77947,5.07441 -0.4339,0.76763 -1.34934,1.54281 -2.27735,1.92843 l -0.64779,0.26917 v 0.47014 0.47013 h 1.62703 c 0.89487,0 1.69757,0.0236 1.78378,0.0524 0.13214,0.0441 0.15676,0.23381 0.15676,1.20793 v 1.15557 h -1.78379 -1.78378 v 3.01518 3.01518 l 0.55127,-0.16513 c 0.73492,-0.22014 1.67197,-0.6393 2.24221,-1.00297 0.50726,-0.32349 1.86418,-1.55001 1.86418,-1.68502 0,-0.0461 -0.17793,-0.14901 -0.39539,-0.22853 -0.34093,-0.12467 -0.39553,-0.18174 -0.3964,-0.41433 -9.2e-4,-0.25178 0.13582,-0.35668 2.05289,-1.57463 1.65672,-1.05254 2.11665,-1.30488 2.37838,-1.30488 0.17846,0 0.32448,0.0302 0.32448,0.0671 0,0.0369 0.13378,0.97094 0.2973,2.07569 0.16351,1.10475 0.2973,2.16171 0.2973,2.3488 0,0.33215 -0.008,0.34017 -0.35177,0.34017 -0.19347,0 -0.4779,-0.0568 -0.63207,-0.1262 l -0.2803,-0.1262 -0.45651,0.59773 c -0.57791,0.75668 -1.59007,1.69324 -2.43227,2.25061 -1.00541,0.66537 -2.67382,1.34587 -3.96382,1.61673 l -1.09918,0.23079 -1.9e-4,0.37098 c -2e-4,0.52083 -0.21721,0.84559 -0.61599,0.92196 -0.56329,0.10787 -1.90394,0.13895 -2.05984,0.0477 z m 1.44104,-16.64515 c 0.73844,-0.29204 1.24727,-1.03748 1.03694,-1.51914 -0.26125,-0.59827 -0.94602,-1.07967 -1.53577,-1.07967 -0.91187,0 -1.925222,1.01996 -1.646802,1.65754 0.218262,0.4998 1.054162,1.09297 1.546932,1.09774 0.10901,10e-4 0.37842,-0.0694 0.5987,-0.15647 z"
         style="fill:#000000;stroke-width:0.09246813" />
      <path
         inkscape:connector-curvature="0"
         id="path855-2-6"
         d="m 81.419014,9.3321025 c -0.0818,-0.0478 -0.25126,-0.0876 -0.37668,-0.0883 -0.27887,-0.002 -0.51521,-0.43352 -0.51521,-0.94152 v -0.34178 l -0.56982,-0.0979 c -2.81117,-0.48303 -5.36172,-1.94328 -6.87944,-3.93865 -0.38104,-0.50096 -0.45318,-0.55477 -0.6756,-0.50393 -0.13696,0.0313 -0.43855,0.0768 -0.67019,0.10112 l -0.42117,0.0442 v -0.34886 c 0,-0.19187 0.13378,-1.25274 0.2973,-2.35747997 0.16351,-1.10475 0.29729,-2.03881003 0.29729,-2.07569003 0,-0.0369 0.14741,-0.0671 0.32757,-0.0671 0.26573,0 0.70061,0.23835 2.30405,1.26284003 1.08707,0.69456 2.00926,1.30607997 2.0493,1.35891997 0.04,0.0529 0.0735,0.19697 0.0743,0.32027 0.001,0.18192 -0.0732,0.24974 -0.39488,0.35975 -0.21802,0.0746 -0.3964,0.17992 -0.3964,0.23411 0,0.187 1.83497,1.69927 2.45167,2.0205 0.34008,0.17716 0.97555,0.4356 1.41216,0.57433 l 0.79383,0.25225 v -3.01893 -3.01891997 h -1.78658 -1.78658 l 0.0276,-1.18636003 0.0276,-1.18636 1.75901,-0.0236 1.75901,-0.0236 v -0.50634 c 0,-0.46703 -0.0191,-0.51051 -0.24573,-0.56004 -0.40348,-0.0882 -1.26116,-0.55942 -1.71649,-0.94316 -1.16992,-0.98597 -1.68352,-2.41804 -1.41434,-3.94366 0.2025,-1.1476995 0.85486,-2.0902895 1.93224,-2.7918995 0.68953,-0.44904 1.03999,-0.50445 3.2281,-0.51039 2.3884,-0.006 2.927974,0.1373 3.929464,1.04721 1.37472,1.24902 1.70956,3.4288895 0.77947,5.0744095 -0.4339,0.76763 -1.34934,1.54281 -2.277354,1.92843 l -0.64779,0.26917 v 0.47014 0.47013 h 1.627034 c 0.89487,0 1.69757,0.0236 1.78378,0.0524 0.13214,0.0441 0.15676,0.23381 0.15676,1.20793 v 1.15557003 h -1.78379 -1.783784 v 3.01517997 3.01518 l 0.55127,-0.16513 c 0.734924,-0.22014 1.671974,-0.6393 2.242214,-1.00297 0.50726,-0.32349 1.86418,-1.55001 1.86418,-1.68502 0,-0.0461 -0.17793,-0.14901 -0.39539,-0.22853 -0.34093,-0.12467 -0.39553,-0.18174 -0.3964,-0.41433 -9.2e-4,-0.25178 0.13582,-0.35668 2.05289,-1.57462997 1.65672,-1.05254003 2.11665,-1.30488003 2.37838,-1.30488003 0.17846,0 0.32448,0.0302 0.32448,0.0671 0,0.0369 0.13378,0.97094003 0.2973,2.07569003 0.16351,1.10474997 0.2973,2.16170997 0.2973,2.34879997 0,0.33215 -0.008,0.34017 -0.35177,0.34017 -0.19347,0 -0.4779,-0.0568 -0.63207,-0.1262 l -0.2803,-0.1262 -0.45651,0.59773 c -0.57791,0.75668 -1.59007,1.69324 -2.43227,2.25061 -1.00541,0.66537 -2.67382,1.34587 -3.96382,1.61673 l -1.099184,0.23079 -1.9e-4,0.37098 c -2e-4,0.52083 -0.21721,0.84559 -0.61599,0.92196 -0.56329,0.10787 -1.90394,0.13895 -2.05984,0.0477 z m 1.44104,-16.64515 c 0.73844,-0.29204 1.24727,-1.03748 1.03694,-1.51914 -0.26125,-0.59827 -0.94602,-1.07967 -1.53577,-1.07967 -0.91187,0 -1.92522,1.01996 -1.6468,1.65754 0.21826,0.4998 1.05416,1.09297 1.54693,1.09774 0.10901,0.001 0.37842,-0.0694 0.5987,-0.15647 z"
         style="fill:#000000;stroke-width:0.09246813" />
      <path
         inkscape:connector-curvature="0"
         id="path855-2-6-0"
         d="m 187.65841,-102.55624 c -0.0818,-0.0478 -0.25126,-0.0876 -0.37668,-0.0883 -0.27887,-0.002 -0.51521,-0.43352 -0.51521,-0.94152 v -0.34178 l -0.56982,-0.0979 c -2.81117,-0.48303 -5.36172,-1.94328 -6.87944,-3.93865 -0.38104,-0.50096 -0.45318,-0.55477 -0.6756,-0.50393 -0.13696,0.0313 -0.43855,0.0768 -0.67019,0.10112 l -0.42117,0.0442 v -0.34886 c 0,-0.19187 0.13378,-1.25274 0.2973,-2.35748 0.16351,-1.10475 0.29729,-2.03881 0.29729,-2.07569 0,-0.0369 0.14741,-0.0671 0.32757,-0.0671 0.26573,0 0.70061,0.23835 2.30405,1.26284 1.08707,0.69456 2.00926,1.30608 2.0493,1.35892 0.04,0.0529 0.0735,0.19697 0.0743,0.32027 10e-4,0.18192 -0.0732,0.24974 -0.39488,0.35975 -0.21802,0.0746 -0.3964,0.17992 -0.3964,0.23411 0,0.187 1.83497,1.69927 2.45167,2.0205 0.34008,0.17716 0.97555,0.4356 1.41216,0.57433 l 0.79383,0.25225 v -3.01893 -3.01892 h -1.78658 -1.78658 l 0.0276,-1.18636 0.0276,-1.18636 1.75901,-0.0236 1.75901,-0.0236 v -0.50633 c 0,-0.46703 -0.0191,-0.51051 -0.24573,-0.56004 -0.40348,-0.0882 -1.26116,-0.55942 -1.71649,-0.94316 -1.16992,-0.98597 -1.68352,-2.41804 -1.41434,-3.94366 0.2025,-1.1477 0.85486,-2.09029 1.93224,-2.7919 0.68953,-0.44904 1.03999,-0.50445 3.2281,-0.51039 2.3884,-0.006 2.92797,0.1373 3.92946,1.04721 1.37472,1.24902 1.70956,3.42889 0.77947,5.07441 -0.4339,0.76763 -1.34934,1.54281 -2.27735,1.92843 l -0.64779,0.26917 v 0.47014 0.47013 h 1.62703 c 0.89487,0 1.69757,0.0236 1.78378,0.0524 0.13214,0.0441 0.15676,0.23381 0.15676,1.20793 v 1.15557 h -1.78379 -1.78378 v 3.01518 3.01518 l 0.55127,-0.16513 c 0.73492,-0.22014 1.67197,-0.6393 2.24221,-1.00297 0.50726,-0.32349 1.86418,-1.55001 1.86418,-1.68502 0,-0.0461 -0.17793,-0.14901 -0.39539,-0.22853 -0.34093,-0.12467 -0.39553,-0.18174 -0.3964,-0.41433 -9.2e-4,-0.25178 0.13582,-0.35668 2.05289,-1.57463 1.65672,-1.05254 2.11665,-1.30488 2.37838,-1.30488 0.17846,0 0.32448,0.0302 0.32448,0.0671 0,0.0369 0.13378,0.97094 0.2973,2.07569 0.16351,1.10475 0.2973,2.16171 0.2973,2.3488 0,0.33215 -0.008,0.34017 -0.35177,0.34017 -0.19347,0 -0.4779,-0.0568 -0.63207,-0.1262 l -0.2803,-0.1262 -0.45651,0.59773 c -0.57791,0.75668 -1.59007,1.69324 -2.43227,2.25061 -1.00541,0.66537 -2.67382,1.34587 -3.96382,1.61673 l -1.09918,0.23079 -1.9e-4,0.37098 c -2e-4,0.52083 -0.21721,0.84559 -0.61599,0.92196 -0.56329,0.10787 -1.90394,0.13895 -2.05984,0.0477 z m 1.44104,-16.64515 c 0.73844,-0.29204 1.24727,-1.03748 1.03694,-1.51914 -0.26125,-0.59827 -0.94602,-1.07967 -1.53577,-1.07967 -0.91187,0 -1.92522,1.01996 -1.6468,1.65754 0.21826,0.4998 1.05416,1.09297 1.54693,1.09774 0.10901,0.001 0.37842,-0.0694 0.5987,-0.15647 z"
         style="fill:#000000;stroke-width:0.09246813" />
      <path
         inkscape:connector-curvature="0"
         id="path855-2-6-0-8"
         d="m 151.46808,281.55438 c -0.0818,-0.0478 -0.25126,-0.0876 -0.37668,-0.0883 -0.27887,-0.002 -0.51521,-0.43352 -0.51521,-0.94152 v -0.34178 l -0.56982,-0.0979 c -2.81117,-0.48303 -5.36172,-1.94328 -6.87944,-3.93865 -0.38104,-0.50096 -0.45318,-0.55477 -0.6756,-0.50393 -0.13696,0.0313 -0.43855,0.0768 -0.67019,0.10112 l -0.42117,0.0442 v -0.34885 c 0,-0.19187 0.13378,-1.25274 0.2973,-2.35748 0.16351,-1.10475 0.29729,-2.03881 0.29729,-2.07569 0,-0.0369 0.14741,-0.0671 0.32757,-0.0671 0.26573,0 0.70061,0.23835 2.30405,1.26284 1.08707,0.69456 2.00926,1.30608 2.0493,1.35892 0.04,0.0529 0.0735,0.19697 0.0743,0.32027 0.001,0.18192 -0.0732,0.24974 -0.39488,0.35975 -0.21802,0.0746 -0.3964,0.17992 -0.3964,0.23411 0,0.187 1.83497,1.69926 2.45167,2.02049 0.34008,0.17716 0.97555,0.4356 1.41216,0.57433 l 0.79383,0.25225 v -3.01892 -3.01892 h -1.78658 -1.78658 l 0.0276,-1.18636 0.0276,-1.18636 1.75901,-0.0236 1.75901,-0.0236 v -0.50632 c 0,-0.46703 -0.0191,-0.51051 -0.24573,-0.56004 -0.40348,-0.0882 -1.26116,-0.55942 -1.71649,-0.94316 -1.16992,-0.98597 -1.68352,-2.41804 -1.41434,-3.94366 0.2025,-1.1477 0.85486,-2.09029 1.93224,-2.7919 0.68953,-0.44904 1.03999,-0.50445 3.2281,-0.51039 2.3884,-0.006 2.92797,0.1373 3.92946,1.04721 1.37472,1.24902 1.70956,3.42889 0.77947,5.07441 -0.4339,0.76763 -1.34934,1.54281 -2.27735,1.92843 l -0.64779,0.26917 v 0.47014 0.47013 h 1.62703 c 0.89487,0 1.69757,0.0236 1.78378,0.0524 0.13214,0.0441 0.15676,0.23381 0.15676,1.20793 v 1.15557 h -1.78379 -1.78378 v 3.01518 3.01517 l 0.55127,-0.16513 c 0.73492,-0.22014 1.67197,-0.6393 2.24221,-1.00297 0.50726,-0.32349 1.86418,-1.55 1.86418,-1.68501 0,-0.0461 -0.17793,-0.14901 -0.39539,-0.22853 -0.34093,-0.12467 -0.39553,-0.18174 -0.3964,-0.41433 -9.3e-4,-0.25178 0.13582,-0.35668 2.05289,-1.57463 1.65672,-1.05254 2.11665,-1.30488 2.37838,-1.30488 0.17846,0 0.32448,0.0302 0.32448,0.0671 0,0.0369 0.13378,0.97094 0.2973,2.07569 0.16351,1.10475 0.2973,2.16171 0.2973,2.3488 0,0.33214 -0.008,0.34016 -0.35177,0.34016 -0.19347,0 -0.4779,-0.0568 -0.63207,-0.1262 l -0.2803,-0.12619 -0.45651,0.59772 c -0.57791,0.75668 -1.59007,1.69324 -2.43227,2.25061 -1.00541,0.66537 -2.67382,1.34587 -3.96382,1.61673 l -1.09918,0.23079 -1.9e-4,0.37098 c -2e-4,0.52083 -0.21721,0.84559 -0.61599,0.92196 -0.56329,0.10787 -1.90394,0.13895 -2.05984,0.0477 z m 1.44104,-16.64514 c 0.73844,-0.29204 1.24727,-1.03748 1.03694,-1.51914 -0.26125,-0.59827 -0.94602,-1.07967 -1.53577,-1.07967 -0.91187,0 -1.92522,1.01996 -1.6468,1.65754 0.21826,0.4998 1.05416,1.09297 1.54693,1.09774 0.10901,10e-4 0.37842,-0.0694 0.5987,-0.15647 z"
         style="fill:#000000;stroke-width:0.09246813" />
      <path
         inkscape:connector-curvature="0"
         id="path855-2-6-0-8-0"
         d="m 132.27946,255.58748 c -0.0818,-0.0478 -0.25126,-0.0876 -0.37668,-0.0883 -0.27887,-0.002 -0.51521,-0.43352 -0.51521,-0.94152 v -0.34178 l -0.56982,-0.0979 c -2.81117,-0.48303 -5.36172,-1.94328 -6.87944,-3.93865 -0.38104,-0.50096 -0.45318,-0.55477 -0.6756,-0.50393 -0.13696,0.0313 -0.43855,0.0768 -0.67019,0.10112 l -0.42117,0.0442 v -0.34885 c 0,-0.19187 0.13378,-1.25274 0.2973,-2.35748 0.16351,-1.10475 0.29729,-2.03881 0.29729,-2.07569 0,-0.0369 0.14741,-0.0671 0.32757,-0.0671 0.26573,0 0.70061,0.23835 2.30405,1.26284 1.08707,0.69456 2.00926,1.30608 2.0493,1.35892 0.04,0.0529 0.0735,0.19697 0.0743,0.32027 0.001,0.18192 -0.0732,0.24974 -0.39488,0.35975 -0.21802,0.0746 -0.3964,0.17992 -0.3964,0.23411 0,0.187 1.83497,1.69926 2.45167,2.02049 0.34008,0.17716 0.97555,0.4356 1.41216,0.57433 l 0.79383,0.25225 v -3.01892 -3.01892 h -1.78658 -1.78658 l 0.0276,-1.18636 0.0276,-1.18636 1.75901,-0.0236 1.75901,-0.0236 v -0.50632 c 0,-0.46703 -0.0191,-0.51051 -0.24573,-0.56004 -0.40348,-0.0882 -1.26116,-0.55941 -1.71649,-0.94315 -1.16992,-0.98597 -1.68352,-2.41804 -1.41434,-3.94366 0.2025,-1.1477 0.85486,-2.09029 1.93224,-2.7919 0.68953,-0.44904 1.03999,-0.50445 3.2281,-0.51039 2.3884,-0.006 2.92797,0.1373 3.92946,1.04721 1.37472,1.24902 1.70956,3.42889 0.77947,5.07441 -0.4339,0.76763 -1.34934,1.54281 -2.27735,1.92843 l -0.64779,0.26917 v 0.47014 0.47013 h 1.62703 c 0.89487,0 1.69757,0.0236 1.78378,0.0524 0.13214,0.0441 0.15676,0.23381 0.15676,1.20793 v 1.15557 h -1.78379 -1.78378 v 3.01518 3.01517 l 0.55127,-0.16513 c 0.73492,-0.22014 1.67197,-0.6393 2.24221,-1.00297 0.50726,-0.32349 1.86418,-1.55 1.86418,-1.68501 0,-0.0461 -0.17793,-0.14901 -0.39539,-0.22853 -0.34093,-0.12467 -0.39553,-0.18174 -0.3964,-0.41433 -9.3e-4,-0.25178 0.13582,-0.35668 2.05289,-1.57463 1.65672,-1.05254 2.11665,-1.30488 2.37838,-1.30488 0.17846,0 0.32448,0.0302 0.32448,0.0671 0,0.0369 0.13378,0.97094 0.2973,2.07569 0.16351,1.10475 0.2973,2.16171 0.2973,2.3488 0,0.33214 -0.008,0.34016 -0.35177,0.34016 -0.19347,0 -0.4779,-0.0568 -0.63207,-0.1262 l -0.2803,-0.12619 -0.45651,0.59772 c -0.57791,0.75668 -1.59007,1.69324 -2.43227,2.25061 -1.00541,0.66537 -2.67382,1.34587 -3.96382,1.61673 l -1.09918,0.23079 -1.9e-4,0.37098 c -2e-4,0.52083 -0.21721,0.84559 -0.61599,0.92196 -0.56329,0.10787 -1.90394,0.13895 -2.05984,0.0477 z m 1.44104,-16.64514 c 0.73844,-0.29204 1.24727,-1.03748 1.03694,-1.51914 -0.26125,-0.59827 -0.94602,-1.07967 -1.53577,-1.07967 -0.91187,0 -1.92522,1.01996 -1.6468,1.65754 0.21826,0.4998 1.05416,1.09297 1.54693,1.09774 0.10901,0.001 0.37842,-0.0694 0.5987,-0.15647 z"
         style="fill:#000000;stroke-width:0.09246813" />
    </g>
    <path
       style="fill:#000000;stroke-width:0.11189853"
       d="m 200.7577,568.20764 c -0.041,-0.0663 -0.17228,-0.12061 -0.29173,-0.12061 -0.20177,0 -0.2172,-0.0869 -0.2172,-1.22463 0,-1.55029 0.0612,-1.63162 1.60729,-2.13535 l 1.10374,-0.3596 -0.0735,-3.9869 c -0.0404,-2.1928 -0.10012,-4.17113 -0.13273,-4.39628 l -0.0593,-0.40938 -0.97101,0.25995 c -0.53406,0.14298 -2.88447,0.78988 -5.22315,1.43754 -5.31344,1.4715 -4.82699,1.35987 -5.03213,1.15473 -0.13788,-0.13788 -0.17116,-0.48684 -0.17116,-1.79507 0,-0.96191 0.0456,-1.65212 0.11191,-1.69308 0.0616,-0.038 0.11341,-0.15431 0.11526,-0.25837 0.002,-0.13498 1.5867,-1.01759 5.5262,-3.07866 l 5.52284,-2.88943 -0.0594,-3.54968 c -0.0656,-3.91846 -0.0493,-4.0511 0.59039,-4.79844 0.45909,-0.53635 0.77235,-0.61264 2.51587,-0.61264 2.07556,0 2.40479,0.15256 2.94284,1.36361 0.21036,0.47349 0.21893,0.68378 0.16505,4.05266 l -0.0568,3.55325 5.56771,2.9214 c 5.25063,2.75503 5.5716,2.94084 5.63598,3.26272 0.0885,0.44276 0.0888,3.26269 2.6e-4,3.49328 -0.0374,0.0973 -0.15065,0.17568 -0.25177,0.17405 -0.10111,-10e-4 -2.62603,-0.67535 -5.61092,-1.49716 l -5.42708,-1.49418 -0.0707,0.40614 c -0.0389,0.22337 -0.10679,2.20051 -0.15086,4.39362 l -0.0802,3.98748 1.10199,0.35903 c 1.54412,0.50306 1.60554,0.58474 1.60554,2.13476 0,1.10469 -0.0197,1.22463 -0.20142,1.22463 -0.11077,0 -0.25788,0.0565 -0.32691,0.12548 -0.12432,0.12432 -0.57533,0.10448 -2.26913,-0.0999 -0.40004,-0.0483 -1.12285,-0.2335 -1.60625,-0.41161 l -0.87891,-0.32385 -0.96742,0.32119 c -1.32553,0.44008 -3.8283,0.76011 -3.98329,0.50933 z"
       id="path868-5"
       inkscape:connector-curvature="0" />
  </g>
</svg>
