<?xml version="1.0" encoding="UTF-8" standalone="no"?>
<!-- Created with Inkscape (http://www.inkscape.org/) -->

<svg
   width="1000"
   height="1900"
   viewBox="0 0 264.58333 502.70838"
   version="1.1"
   id="svg8"
   inkscape:version="1.2.1 (9c6d41e410, 2022-07-14)"
   sodipodi:docname="広域地図プレーン.svg"
   inkscape:export-filename="E:\projects\AndroidStudio\OKISchedule\app\src\main\res\drawable\map_scale1.png"
   inkscape:export-xdpi="65.559998"
   inkscape:export-ydpi="65.559998"
   xmlns:inkscape="http://www.inkscape.org/namespaces/inkscape"
   xmlns:sodipodi="http://sodipodi.sourceforge.net/DTD/sodipodi-0.dtd"
   xmlns="http://www.w3.org/2000/svg"
   xmlns:svg="http://www.w3.org/2000/svg"
   xmlns:rdf="http://www.w3.org/1999/02/22-rdf-syntax-ns#"
   xmlns:cc="http://creativecommons.org/ns#"
   xmlns:dc="http://purl.org/dc/elements/1.1/">
  <defs
     id="defs2" />
  <sodipodi:namedview
     id="base"
     pagecolor="#ffffff"
     bordercolor="#666666"
     borderopacity="1.0"
     inkscape:pageopacity="0.0"
     inkscape:pageshadow="2"
     inkscape:zoom="0.24748737"
     inkscape:cx="224.25387"
     inkscape:cy="987.9292"
     inkscape:document-units="mm"
     inkscape:current-layer="layer1"
     showgrid="false"
     units="px"
     inkscape:window-width="1920"
     inkscape:window-height="1051"
     inkscape:window-x="-9"
     inkscape:window-y="-9"
     inkscape:window-maximized="1"
     showguides="false"
     inkscape:showpageshadow="2"
     inkscape:pagecheckerboard="0"
     inkscape:deskcolor="#d1d1d1" />
  <metadata
     id="metadata5">
    <rdf:RDF>
      <cc:Work
         rdf:about="">
        <dc:format>image/svg+xml</dc:format>
        <dc:type
           rdf:resource="http://purl.org/dc/dcmitype/StillImage" />
      </cc:Work>
    </rdf:RDF>
  </metadata>
  <g
     inkscape:label="レイヤー 1"
     inkscape:groupmode="layer"
     id="layer1"
     transform="translate(0,205.70836)">
    <g
       id="g989"
       inkscape:export-filename="C:\Users\hm\Documents\CocosProjects\TTable-OKI\地図\g989.png"
       inkscape:export-xdpi="65.559998"
       inkscape:export-ydpi="65.559998">
      <rect
         y="-226.99083"
         x="-63.314999"
         height="550.06689"
         width="390.8833"
         id="rect877"
         style="opacity:1;fill:#3c98ff;fill-opacity:0.53684238;stroke:none;stroke-width:0.76463109;stroke-miterlimit:4;stroke-dasharray:none;stroke-opacity:1" />
      <path
         d="M 151.54132,-36.86945 A 50.119049,45.205357 0 0 1 103.8448,8.283069 50.119049,45.205357 0 0 1 51.537411,-32.50451 a 50.119049,45.205357 0 0 1 42.63991,-49.095495 50.119049,45.205357 0 0 1 56.429439,36.041467"
         sodipodi:open="true"
         sodipodi:end="6.0897679"
         sodipodi:start="0"
         sodipodi:ry="45.205357"
         sodipodi:rx="50.119049"
         sodipodi:cy="-36.86945"
         sodipodi:cx="101.42227"
         sodipodi:type="arc"
         id="path819"
         style="opacity:1;fill:#3cffff;fill-opacity:0.96153846;stroke:none;stroke-width:1.36484277;stroke-miterlimit:4;stroke-dasharray:none;stroke-opacity:1" />
      <path
         d="m 227.60746,-105.84283 a 51.837978,51.837978 0 0 1 -49.33236,51.777391 51.837978,51.837978 0 0 1 -54.10137,-46.772011 51.837978,51.837978 0 0 1 44.10233,-56.29889 51.837978,51.837978 0 0 1 58.36479,41.32954"
         sodipodi:open="true"
         sodipodi:end="6.0897679"
         sodipodi:start="0"
         sodipodi:ry="51.837978"
         sodipodi:rx="51.837978"
         sodipodi:cy="-105.84283"
         sodipodi:cx="175.76949"
         sodipodi:type="arc"
         id="path819-9"
         style="opacity:1;fill:#3cffff;fill-opacity:0.96153846;stroke:none;stroke-width:1.48639536;stroke-miterlimit:4;stroke-dasharray:none;stroke-opacity:1" />
    </g>
    <path
       style="fill:#80ff80;fill-opacity:1;stroke:#000000;stroke-width:0.54822117;stroke-opacity:1"
       d="m -8.8084768,299.85675 c 7.4235815,-7.60393 2.7155235,-24.99969 -9.1026762,-24.89824 -9.856627,-6.04755 7.827711,-14.22932 14.7210287,-11.6955 2.044126,-9.06493 15.5086553,6.88583 19.4841693,-3.22149 -1.310374,-3.80367 -9.971793,-6.60321 -0.327728,-6.17411 4.817299,1.30186 8.115133,-2.08537 11.920509,-4.37037 7.674389,-9.25406 19.224371,-10.41208 30.92466,-10.29373 7.101511,-2.74502 16.719348,-2.77925 22.428727,-5.48261 -3.567482,-12.32197 13.765472,-2.94535 18.400023,-7.09077 -1.606794,-6.21 7.100724,-4.2575 4.405864,-11.77102 8.34641,-4.68999 18.17879,1.44124 26.51786,4.25975 9.27735,3.96191 15.47851,-7.26002 24.98564,-5.27705 9.49406,0.28275 25.50609,-0.93931 29.96129,6.63565 -7.07372,5.65355 -22.9311,-1.30232 -25.50107,7.81094 6.25591,6.01686 13.91421,11.39204 20.2024,18.21763 9.56477,5.10072 19.40245,12.06466 30.88159,9.10348 11.55506,0.92263 3.72616,-18.1109 16.57413,-14.28834 10.84713,-3.82171 20.4221,-9.96376 32.59997,-10.40226 9.12424,-0.77394 16.68323,6.68441 25.75098,6.30329 v 64.14188 H -10.225703 c 0.4724092,-0.50238 0.9448172,-1.00474 1.4172262,-1.50713 z m 192.0055068,-29.741 c 4.77495,-12.15435 -22.32743,-8.51207 -22.32743,-19.18076 -6.62281,-6.6228 -8.48884,-14.14013 -0.85978,-22.64678 -7.97413,0.0978 -23.26217,13.04323 -31.51372,14.62865 -1.44554,9.79095 9.29872,9.52009 12.81849,3.19217 8.90163,2.85549 0.74918,-8.49143 10.4256,-4.5386 4.26676,2.78405 -4.29844,6.6904 -1.50772,11.96206 -8.91788,-7.42346 -21.14187,5.43197 -31.81722,3.10688 -9.26678,3.42223 -6.07546,0.69232 7.36946,2.23505 18.07519,-13.35277 13.548,7.21851 21.71843,5.26838 5.15509,-4.27657 12.11548,-8.25951 16.51112,-0.71311 5.45677,3.61227 14.72695,3.42243 18.29192,7.83348 l 0.33395,-0.81039 0.5569,-0.33705 z m -103.330943,0.19953 c 7.170127,-1.34187 12.158821,-4.57048 19.719111,-4.51224 9.228062,-2.60919 6.682732,-11.81087 -2.146435,-11.35957 -10.101088,-5.00662 -22.201351,-4.62607 -32.073526,0.97217 -8.044035,1.74145 -19.851627,4.04656 -10.878692,11.96107 5.311155,6.77985 17.873251,2.2459 25.379542,2.93857 z"
       id="path843"
       inkscape:connector-curvature="0"
       sodipodi:nodetypes="ccccccccccccccccccccccccccccccccccccccccccc" />
    <g
       id="g1013"
       inkscape:export-xdpi="65.559998"
       inkscape:export-ydpi="65.559998">
      <path
         sodipodi:nodetypes="cccccccccccccccccccccccccccccccccc"
         inkscape:connector-curvature="0"
         id="path838"
         d="m 81.731705,-16.812769 -9.260417,-19.087787 3.948772,-5.10621 -0.193905,4.38186 2.411972,1.24144 -0.531266,-5.72693 6.685012,-0.51517 -0.792311,-9.96101 3.521871,7.06993 -2.72956,2.89108 2.703969,7.23691 4.44122,7.370537 10.016368,-1.13393 2.18298,-9.427527 -6.907682,-8.71533 1.693026,-5.65737 12.116536,-2.18286 5.07975,-10.010795 -5.86812,-1.91444 -12.127672,4.35623 -10.531912,-3.30058 -3.590774,13.418145 -4.167236,-1.72381 -3.486782,2.76325 -0.283483,-2.26786 0.944942,-2.45685 -3.779763,1.41742 -8.693452,9.63839 3.590774,1.13393 -5.291667,2.64583 -1.155873,12.053807 3.978247,-0.27882 -3.622215,1.32677 z"
         style="fill:#80ff80;fill-opacity:1;stroke:#000000;stroke-width:0.26458332px;stroke-linecap:butt;stroke-linejoin:miter;stroke-opacity:1" />
      <path
         sodipodi:nodetypes="cccccccccccccccc"
         inkscape:connector-curvature="0"
         id="path842"
         d="m 85.35069,-1.8122889 7.617183,-2.40543 1.737249,2.93997 1.336349,-2.6727 1.870886,2.67269 0.801809,-5.8799297 3.608144,3.6081497 4.81085,-1.20271 0.63476,4.77743004 3.64155,-0.10022 -0.93544,-6.94900974 3.4745,-3.6081404 -9.35443,2.2718004 -8.953534,-5.8799404 -12.171609,-0.30065 z"
         style="fill:#80ff80;fill-opacity:1;stroke:#000000;stroke-width:0.26458332px;stroke-linecap:butt;stroke-linejoin:miter;stroke-opacity:1" />
      <path
         inkscape:connector-curvature="0"
         id="path844"
         d="m 103.59184,-1.9793389 2.00452,-0.53454 -0.30068,3.04019004 z"
         style="fill:#80ff80;fill-opacity:1;stroke:#000000;stroke-width:0.26458332px;stroke-linecap:butt;stroke-linejoin:miter;stroke-opacity:1" />
      <path
         sodipodi:nodetypes="ccccc"
         inkscape:connector-curvature="0"
         id="path846"
         d="m 116.1201,-2.5472789 -0.66818,1.46998 0.63477,1.06908004 0.76839,-1.26954004 z"
         style="fill:#80ff80;fill-opacity:1;stroke:#000000;stroke-width:0.26458332px;stroke-linecap:butt;stroke-linejoin:miter;stroke-opacity:1" />
      <path
         sodipodi:nodetypes="cccccccccccccccccccccccccccccccccccccccccccc"
         inkscape:connector-curvature="0"
         id="path848"
         d="m 110.67448,-41.501816 2.78746,8.200357 -1.30786,0.62764 1.55961,0.598 -1.55105,6.31326 0.18227,7.78046 3.86985,-1.63327 -1.30114,-1.70482 4.93613,-1.32406 -1.87875,-2.05988 7.94374,0.29297 -2.14881,-2.60784 3.11274,-1.25135 -3.22344,-1.74397 5.62215,-0.5211 -6.57774,-3.732277 7.8196,1.786227 -1.15286,-4.504287 2.68966,1.43069 2.73951,-0.4009 1.13589,-2.2718 3.94223,2.13816 1.73725,-1.00226 -6.61492,-3.40768 -5.41221,1.40316 -1.13589,-4.47677 2.20497,-1.00226 -0.46772,-6.48129 2.53906,-0.93543 -2.6727,-1.73726 2.6727,-1.73725 -2.57247,-2.13816 -6.71515,-0.53455 -3.80859,1.67043 -1.73725,2.73952 0.72075,4.84327 -1.27486,1.90668 -1.65225,-1.65332 0.001,-5.19685 -1.60362,0.90203 -0.4009,5.14494 -1.97479,-2.20981 -4.23923,3.74661 z"
         style="fill:#80ff80;fill-opacity:1;stroke:#000000;stroke-width:0.26458332px;stroke-linecap:butt;stroke-linejoin:miter;stroke-opacity:1" />
      <path
         sodipodi:nodetypes="ccccccc"
         inkscape:connector-curvature="0"
         id="path850"
         d="m 143.18341,-59.004351 -2.59859,4.606575 1.77177,0.73233 0.94494,3.02381 2.62221,-4.27585 -1.74814,-1.07488 z"
         style="fill:#80ff80;fill-opacity:1;stroke:#000000;stroke-width:0.26458332px;stroke-linecap:butt;stroke-linejoin:miter;stroke-opacity:1" />
      <path
         inkscape:connector-curvature="0"
         id="path852"
         d="m 147.17207,-66.022031 4.26901,-2.82453 -3.1744,-0.20922 z"
         style="fill:#80ff80;fill-opacity:1;stroke:#000000;stroke-width:0.21186797px;stroke-linecap:butt;stroke-linejoin:miter;stroke-opacity:1" />
      <path
         sodipodi:nodetypes="ccccccccccccccccccccccccccccccccc"
         inkscape:connector-curvature="0"
         id="path854"
         d="m 180.49865,-80.656801 13.09621,1.33634 -0.26728,-8.68626 -4.81085,-2.53906 5.21176,-0.8018 2.00452,-6.681737 2.93996,3.875397 -2.93996,4.94449 10.15624,-2.93996 6.1472,-15.234369 -0.0487,-11.8683 -4.3856,-3.55391 -2.24744,-11.03747 -11.27904,-9.57028 -14.9648,-3.01431 -2.11359,-3.39229 -4.66772,6.21205 -15.08337,3.35036 -11.22532,11.75986 5.42923,2.31371 -6.23104,0.62626 0.26727,10.15624 -2.93997,3.20723 3.20724,1.87089 -1.60362,7.21627 4.54358,4.276322 1.87089,7.750807 4.54358,4.54359 4.5436,0.26726 0.26727,5.07813 16.57071,4.27632 2.40542,-6.94902 z"
         style="fill:#80ff80;fill-opacity:1;stroke:#000000;stroke-width:0.26458332px;stroke-linecap:butt;stroke-linejoin:miter;stroke-opacity:1" />
    </g>
    <path
       style="fill:#000000;stroke-width:0.08609331"
       d="m 37.403532,281.3051 c -0.03149,-0.0511 -0.132316,-0.093 -0.224064,-0.093 -0.154961,0 -0.166813,-0.067 -0.166813,-0.94387 0,-1.19487 0.04701,-1.25755 1.23446,-1.64579 l 0.847718,-0.27716 -0.05642,-3.07285 c -0.03102,-1.69007 -0.0769,-3.21484 -0.101945,-3.38837 l -0.04554,-0.31553 -0.745772,0.20036 c -0.410175,0.11019 -2.21539,0.60878 -4.01159,1.10796 -4.080935,1.13414 -3.70732,1.0481 -3.864877,0.88999 -0.105899,-0.10627 -0.131454,-0.37522 -0.131454,-1.38352 0,-0.74138 0.03504,-1.27335 0.08595,-1.30492 0.04727,-0.0293 0.08711,-0.11893 0.08852,-0.19914 0.0019,-0.10403 1.218653,-0.78429 4.244346,-2.37283 l 4.241761,-2.22699 -0.04566,-2.73587 c -0.05041,-3.0201 -0.03787,-3.12233 0.453445,-3.69833 0.352603,-0.41339 0.593195,-0.47218 1.932292,-0.47218 1.594114,0 1.846971,0.11757 2.260218,1.05097 0.161569,0.36494 0.168146,0.52702 0.126768,3.12354 l -0.04364,2.73862 4.276225,2.25163 c 4.032691,2.1234 4.279212,2.26661 4.328653,2.5147 0.06801,0.34125 0.06823,2.51467 2.58e-4,2.6924 -0.02869,0.075 -0.115708,0.1354 -0.193371,0.13414 -0.07766,-9.8e-4 -2.016897,-0.52051 -4.309415,-1.15391 l -4.168216,-1.15162 -0.05431,0.31302 c -0.02988,0.17216 -0.08201,1.69602 -0.115866,3.38632 l -0.06156,3.07331 0.846378,0.27671 c 1.185942,0.38773 1.233119,0.45068 1.233119,1.64534 0,0.85143 -0.01515,0.94387 -0.154697,0.94387 -0.08508,0 -0.19807,0.0435 -0.251081,0.0967 -0.09549,0.0958 -0.441879,0.0805 -1.742787,-0.077 -0.307245,-0.0372 -0.862394,-0.17997 -1.233667,-0.31725 l -0.675038,-0.2496 -0.743015,0.24755 c -1.018059,0.33919 -2.940286,0.58585 -3.059327,0.39256 z"
       id="path868"
       inkscape:connector-curvature="0" />
    <path
       style="fill:#000000;stroke-width:0.26458332"
       d=""
       id="path866"
       inkscape:connector-curvature="0" />
    <path
       style="fill:#000000;stroke-width:0.08609327"
       d="m 173.53655,-73.840794 c -0.0315,-0.05112 -0.13231,-0.09296 -0.22406,-0.09296 -0.15497,0 -0.16682,-0.067 -0.16682,-0.94387 0,-1.194869 0.047,-1.257552 1.23446,-1.645795 l 0.84772,-0.277158 -0.0564,-3.072848 c -0.0311,-1.690072 -0.0769,-3.214842 -0.10194,-3.388374 l -0.0455,-0.315524 -0.74577,0.200353 c -0.41018,0.110198 -2.21539,0.608787 -4.01159,1.107968 -4.08093,1.134139 -3.70732,1.048098 -3.86487,0.889991 -0.1059,-0.106271 -0.13146,-0.375228 -0.13146,-1.383527 0,-0.741376 0.035,-1.273349 0.0859,-1.304917 0.0473,-0.02931 0.0871,-0.118932 0.0885,-0.19914 0.002,-0.10403 1.21865,-0.784292 4.24434,-2.37283 l 4.24176,-2.226989 -0.0456,-2.735871 c -0.0504,-3.020103 -0.0379,-3.122327 0.45344,-3.698332 0.3526,-0.413387 0.5932,-0.472182 1.93229,-0.472182 1.59412,0 1.84697,0.117579 2.26022,1.05098 0.16156,0.364934 0.16814,0.527019 0.12676,3.123531 l -0.0437,2.738624 4.27623,2.251629 c 4.03268,2.123403 4.2792,2.26661 4.32865,2.514695 0.068,0.341251 0.0682,2.514676 2.5e-4,2.692401 -0.0287,0.075 -0.1157,0.135402 -0.19337,0.134148 -0.0777,-9.86e-4 -2.01689,-0.520516 -4.30941,-1.153914 l -4.16821,-1.151625 -0.0543,0.313028 c -0.0299,0.17216 -0.082,1.696012 -0.11586,3.386321 l -0.0615,3.073302 0.84637,0.276714 c 1.18594,0.38773 1.23312,0.450679 1.23312,1.645341 0,0.851425 -0.0152,0.94387 -0.1547,0.94387 -0.0851,0 -0.19807,0.04352 -0.25108,0.09671 -0.0955,0.09582 -0.44187,0.08053 -1.74279,-0.07697 -0.30724,-0.0372 -0.86239,-0.179966 -1.23367,-0.317242 l -0.67503,-0.249606 -0.74302,0.247553 c -1.01805,0.339189 -2.94027,0.585844 -3.05932,0.392556 z"
       id="path868-6"
       inkscape:connector-curvature="0" />
    <g
       id="g856">
      <path
         sodipodi:nodetypes="csc"
         inkscape:connector-curvature="0"
         id="path847"
         d="m 155.5496,213.84161 c 3.10545,-5.12399 31.85944,-15.58908 41.58684,-43.74101 23.4555,-67.88223 21.79222,-212.340164 -3.40795,-261.448181"
         style="fill:none;stroke:#000000;stroke-width:0.79374999;stroke-linecap:butt;stroke-linejoin:miter;stroke-miterlimit:4;stroke-dasharray:none;stroke-opacity:1" />
      <path
         sodipodi:nodetypes="czc"
         inkscape:connector-curvature="0"
         id="path849"
         d="m 160.00982,228.28821 c 58.06788,7.11484 58.1329,-54.08351 59.37754,-76.50594 1.24464,-22.42243 -6.76006,-230.278661 -25.65887,-243.129851"
         style="fill:none;stroke:#000000;stroke-width:0.79374999;stroke-linecap:butt;stroke-linejoin:miter;stroke-miterlimit:4;stroke-dasharray:none;stroke-opacity:1" />
      <path
         sodipodi:nodetypes="cccccccc"
         inkscape:connector-curvature="0"
         id="path851"
         d="m 155.5496,213.84161 c 0,0 4.65675,-183.156192 -12.6746,-213.1749726 -10.33821,-32.6548174 -38.2809,-9.0270276 -38.2809,-9.0270276 6.94901,-41.0258728 -7.365372,-37.9345188 -7.365372,-37.9345188 0,0 12.710372,-11.643989 16.452142,-1.487747 -3.87541,-13.229842 15.58699,-26.389991 15.58699,-26.389991 28.9885,-10.349255 37.17149,12.637009 55.23984,10.08656 26.6523,-5.023135 9.22079,-27.261494 9.22079,-27.261494"
         style="fill:none;stroke:#000000;stroke-width:0.79374999;stroke-linecap:butt;stroke-linejoin:miter;stroke-miterlimit:4;stroke-dasharray:none;stroke-opacity:1" />
      <path
         sodipodi:nodetypes="ccc"
         inkscape:connector-curvature="0"
         id="path853"
         d="m 113.68087,-47.782658 c -15.558622,-13.921483 -2.59545,14.479394 -7.8421,37.422664 85.3298,-50.466889 165.74757,254.531004 54.17105,238.648194"
         style="fill:none;stroke:#000000;stroke-width:0.79374999;stroke-linecap:butt;stroke-linejoin:miter;stroke-miterlimit:4;stroke-dasharray:none;stroke-opacity:1" />
      <path
         sodipodi:nodetypes="ccc"
         inkscape:connector-curvature="0"
         d="M 43.706978,266.08467 179.83997,-89.061214 c 28.21629,12.868857 55.77112,25.454233 83.98741,38.32309"
         style="fill:none;stroke:#000000;stroke-width:1.32291663;stroke-linecap:butt;stroke-linejoin:miter;stroke-miterlimit:4;stroke-dasharray:3.96875, 3.96875;stroke-dashoffset:0;stroke-opacity:1"
         id="path887" />
    </g>
    <g
       id="g938">
      <path
         inkscape:connector-curvature="0"
         id="path855"
         d="m 88.807133,-33.140606 c -0.08176,-0.0478 -0.251262,-0.0876 -0.376678,-0.0883 -0.27887,-0.002 -0.515214,-0.43352 -0.515214,-0.94152 v -0.34178 l -0.56982,-0.0979 c -2.811166,-0.48303 -5.361713,-1.94328 -6.879432,-3.93865 -0.381041,-0.50096 -0.453184,-0.55477 -0.675608,-0.50393 -0.136958,0.0313 -0.438542,0.0768 -0.670186,0.10112 l -0.421171,0.0442 v -0.34886 c 0,-0.19187 0.133784,-1.25274 0.297297,-2.35748 0.163514,-1.10475 0.297298,-2.03881 0.297298,-2.07569 0,-0.0369 0.147402,-0.0671 0.327561,-0.0671 0.265735,0 0.700613,0.23835 2.304054,1.26284 1.087071,0.69456 2.009256,1.30608 2.0493,1.35892 0.04004,0.0529 0.07349,0.19697 0.07432,0.32027 0.0013,0.18192 -0.07321,0.24974 -0.394879,0.35975 -0.218018,0.0746 -0.396396,0.17992 -0.396396,0.23411 0,0.187 1.83497,1.69927 2.451661,2.0205 0.34008,0.17716 0.975553,0.4356 1.412162,0.57433 l 0.793835,0.25225 v -3.01893 -3.01892 h -1.786581 -1.78658 l 0.02757,-1.18636 0.02757,-1.18636 1.75901,-0.0236 1.759009,-0.0236 v -0.50634 c 0,-0.46703 -0.01908,-0.51051 -0.24573,-0.56004 -0.403483,-0.0882 -1.261161,-0.55944 -1.716494,-0.94318 -1.16992,-0.98597 -1.683513,-2.41804 -1.414336,-3.94366 0.202499,-1.1477 0.854856,-2.09029 1.932243,-2.7919 0.689523,-0.44904 1.039985,-0.50445 3.228101,-0.51039 2.388396,-0.006 2.927961,0.1373 3.929453,1.04721 1.374718,1.24902 1.709563,3.42889 0.779468,5.07441 -0.433892,0.76763 -1.349332,1.54281 -2.277347,1.92843 l -0.64779,0.26917 v 0.47014 0.47013 h 1.62703 c 0.894867,0 1.697569,0.0236 1.783784,0.0524 0.132142,0.0441 0.156754,0.23381 0.156754,1.20793 v 1.15557 h -1.783784 -1.783784 v 3.01518 3.01518 l 0.551276,-0.16513 c 0.734911,-0.22014 1.671963,-0.6393 2.24221,-1.00297 0.507257,-0.32349 1.864172,-1.55001 1.864172,-1.68502 0,-0.0461 -0.177924,-0.14901 -0.395388,-0.22853 -0.340927,-0.12467 -0.395528,-0.18174 -0.396397,-0.41433 -9.31e-4,-0.25178 0.135815,-0.35668 2.05289,-1.57463 1.656719,-1.05254 2.116645,-1.30488 2.378378,-1.30488 0.178465,0 0.324486,0.0302 0.324486,0.0671 0,0.0369 0.13378,0.97094 0.29729,2.07569 0.16352,1.10475 0.2973,2.16171 0.2973,2.3488 0,0.33215 -0.008,0.34017 -0.35177,0.34017 -0.19347,0 -0.4779,-0.0568 -0.632064,-0.1262 l -0.280298,-0.1262 -0.456515,0.59773 c -0.577907,0.75668 -1.590064,1.69324 -2.432269,2.25061 -1.005414,0.66537 -2.673822,1.34587 -3.963817,1.61673 l -1.099178,0.23079 -1.98e-4,0.37098 c -1.99e-4,0.52083 -0.217202,0.84559 -0.615984,0.92196 -0.563295,0.10787 -1.90394,0.13895 -2.059846,0.0477 z m 1.441037,-16.64515 c 0.738443,-0.29204 1.247276,-1.03748 1.036947,-1.51914 -0.261255,-0.59827 -0.946019,-1.07967 -1.535777,-1.07967 -0.911868,0 -1.925212,1.01996 -1.646793,1.65754 0.218254,0.4998 1.054153,1.09297 1.546929,1.09774 0.109009,10e-4 0.378421,-0.0694 0.598694,-0.15647 z"
         style="fill:#000000;stroke-width:0.09246813" />
      <path
         inkscape:connector-curvature="0"
         id="path855-2"
         d="m 124.03494,-31.314626 c -0.0818,-0.0478 -0.25126,-0.0876 -0.37668,-0.0883 -0.27887,-0.002 -0.51521,-0.43352 -0.51521,-0.94152 v -0.34178 l -0.56982,-0.0979 c -2.81117,-0.48303 -5.36172,-1.94328 -6.87944,-3.93865 -0.38104,-0.50096 -0.45318,-0.55477 -0.6756,-0.50393 -0.13696,0.0313 -0.43855,0.0768 -0.67019,0.10112 l -0.42117,0.0442 v -0.34886 c 0,-0.19187 0.13378,-1.25274 0.2973,-2.35748 0.16351,-1.10475 0.29729,-2.03881 0.29729,-2.07569 0,-0.0369 0.14741,-0.0671 0.32757,-0.0671 0.26573,0 0.70061,0.23835 2.30405,1.26284 1.08707,0.69456 2.00926,1.30608 2.0493,1.35892 0.04,0.0529 0.0735,0.19697 0.0743,0.32027 0.001,0.18192 -0.0732,0.24974 -0.39488,0.35975 -0.21802,0.0746 -0.3964,0.17992 -0.3964,0.23411 0,0.187 1.83497,1.69927 2.45167,2.0205 0.34008,0.17716 0.97555,0.4356 1.41216,0.57433 l 0.79383,0.25225 v -3.01893 -3.01892 h -1.78658 -1.78658 l 0.0276,-1.18636 0.0276,-1.18636 1.75901,-0.0236 1.75901,-0.0236 v -0.50634 c 0,-0.46703 -0.0191,-0.51051 -0.24573,-0.56004 -0.40348,-0.0882 -1.26116,-0.55943 -1.71649,-0.94317 -1.16992,-0.98597 -1.68352,-2.41804 -1.41434,-3.94366 0.2025,-1.1477 0.85486,-2.09029 1.93224,-2.7919 0.68953,-0.44904 1.03999,-0.50445 3.2281,-0.51039 2.3884,-0.006 2.92797,0.1373 3.92946,1.04721 1.37472,1.24902 1.70956,3.42889 0.77947,5.07441 -0.4339,0.76763 -1.34934,1.54281 -2.27735,1.92843 l -0.64779,0.26917 v 0.47014 0.47013 h 1.62703 c 0.89487,0 1.69757,0.0236 1.78378,0.0524 0.13214,0.0441 0.15676,0.23381 0.15676,1.20793 v 1.15557 h -1.78379 -1.78378 v 3.01518 3.01518 l 0.55127,-0.16513 c 0.73492,-0.22014 1.67197,-0.6393 2.24221,-1.00297 0.50726,-0.32349 1.86418,-1.55001 1.86418,-1.68502 0,-0.0461 -0.17793,-0.14901 -0.39539,-0.22853 -0.34093,-0.12467 -0.39553,-0.18174 -0.3964,-0.41433 -9.2e-4,-0.25178 0.13582,-0.35668 2.05289,-1.57463 1.65672,-1.05254 2.11665,-1.30488 2.37838,-1.30488 0.17846,0 0.32448,0.0302 0.32448,0.0671 0,0.0369 0.13378,0.97094 0.2973,2.07569 0.16351,1.10475 0.2973,2.16171 0.2973,2.3488 0,0.33215 -0.008,0.34017 -0.35177,0.34017 -0.19347,0 -0.4779,-0.0568 -0.63207,-0.1262 l -0.2803,-0.1262 -0.45651,0.59773 c -0.57791,0.75668 -1.59007,1.69324 -2.43227,2.25061 -1.00541,0.66537 -2.67382,1.34587 -3.96382,1.61673 l -1.09918,0.23079 -1.9e-4,0.37098 c -2e-4,0.52083 -0.21721,0.84559 -0.61599,0.92196 -0.56329,0.10787 -1.90394,0.13895 -2.05984,0.0477 z m 1.44104,-16.64515 c 0.73844,-0.29204 1.24727,-1.03748 1.03694,-1.51914 -0.26125,-0.59827 -0.94602,-1.07967 -1.53577,-1.07967 -0.91187,0 -1.92522,1.01996 -1.6468,1.65754 0.21826,0.4998 1.05416,1.09297 1.54693,1.09774 0.10901,10e-4 0.37842,-0.0694 0.5987,-0.15647 z"
         style="fill:#000000;stroke-width:0.09246813" />
      <path
         inkscape:connector-curvature="0"
         id="path855-2-6"
         d="m 96.394196,18.22616 c -0.0818,-0.0478 -0.25126,-0.0876 -0.37668,-0.0883 -0.27887,-0.002 -0.51521,-0.43352 -0.51521,-0.94152 v -0.34178 l -0.56982,-0.0979 c -2.81117,-0.48303 -5.36172,-1.94328 -6.87944,-3.93865 -0.38104,-0.50096 -0.45318,-0.55477 -0.6756,-0.50393 -0.13696,0.0313 -0.43855,0.0768 -0.67019,0.10112 l -0.42117,0.0442 v -0.34886 c 0,-0.19187 0.13378,-1.25274 0.2973,-2.35748 0.16351,-1.10475 0.29729,-2.03881 0.29729,-2.07569 0,-0.0369 0.14741,-0.0671 0.32757,-0.0671 0.26573,0 0.70061,0.23835 2.30405,1.26284 1.08707,0.69456 2.00926,1.30608 2.0493,1.35892 0.04,0.0529 0.0735,0.19697 0.0743,0.32027 10e-4,0.18192 -0.0732,0.24974 -0.39488,0.35975 -0.21802,0.0746 -0.3964,0.17992 -0.3964,0.23411 0,0.187 1.83497,1.69927 2.45167,2.0205 0.34008,0.17716 0.97555,0.4356 1.41216,0.57433 l 0.79383,0.25225 V 10.97431 7.95539 h -1.78658 -1.78658 l 0.0276,-1.18636 0.0276,-1.18636 1.75901,-0.0236 1.75901,-0.0236 V 5.02913 c 0,-0.46703 -0.0191,-0.51051 -0.24573,-0.56004 -0.40348,-0.0882 -1.26116,-0.55942 -1.71649,-0.94316 -1.16992,-0.98597 -1.68352,-2.41804 -1.41434,-3.94366003 0.2025,-1.14769997 0.85486,-2.09028997 1.93224,-2.79189997 0.68953,-0.44904 1.03999,-0.50445 3.2281,-0.51039 2.3884,-0.006 2.927974,0.1373 3.929464,1.04721 1.37472,1.24902 1.70956,3.42888997 0.77947,5.07441 -0.4339,0.76763 -1.34934,1.54281 -2.277354,1.92843 l -0.64779,0.26917 v 0.47014 0.47013 h 1.627034 c 0.89487,0 1.69757,0.0236 1.78378,0.0524 0.13214,0.0441 0.15676,0.23381 0.15676,1.20793 v 1.15557 h -1.78379 -1.783784 v 3.01518 3.01518 l 0.55127,-0.16513 c 0.734924,-0.22014 1.671974,-0.6393 2.242214,-1.00297 0.50726,-0.32349 1.86418,-1.55001 1.86418,-1.68502 0,-0.0461 -0.17793,-0.14901 -0.39539,-0.22853 -0.34093,-0.12467 -0.39553,-0.18174 -0.3964,-0.41433 -9.2e-4,-0.25178 0.13582,-0.35668 2.05289,-1.57463 1.65672,-1.05254 2.11665,-1.30488 2.37838,-1.30488 0.17846,0 0.32448,0.0302 0.32448,0.0671 0,0.0369 0.13378,0.97094 0.2973,2.07569 0.16351,1.10475 0.2973,2.16171 0.2973,2.3488 0,0.33215 -0.008,0.34017 -0.35177,0.34017 -0.19347,0 -0.4779,-0.0568 -0.63207,-0.1262 l -0.2803,-0.1262 -0.45651,0.59773 c -0.57791,0.75668 -1.59007,1.69324 -2.43227,2.25061 -1.00541,0.66537 -2.67382,1.34587 -3.96382,1.61673 l -1.099184,0.23079 -1.9e-4,0.37098 c -2e-4,0.52083 -0.21721,0.84559 -0.61599,0.92196 -0.56329,0.10787 -1.90394,0.13895 -2.05984,0.0477 z m 1.44104,-16.64515 c 0.73844,-0.29204 1.24727,-1.03748003 1.03694,-1.51914003 -0.26125,-0.59827 -0.94602,-1.07966997 -1.53577,-1.07966997 -0.91187,0 -1.92522,1.01995997 -1.6468,1.65753997 0.21826,0.49980003 1.05416,1.09297003 1.54693,1.09774003 0.10901,0.001 0.37842,-0.0694 0.5987,-0.15647 z"
         style="fill:#000000;stroke-width:0.09246813" />
      <path
         inkscape:connector-curvature="0"
         id="path855-2-6-0"
         d="m 191.54215,-94.027054 c -0.0818,-0.0478 -0.25126,-0.0876 -0.37668,-0.0883 -0.27887,-0.002 -0.51521,-0.43352 -0.51521,-0.94152 v -0.34178 l -0.56982,-0.0979 c -2.81117,-0.48303 -5.36172,-1.94328 -6.87944,-3.93865 -0.38104,-0.50096 -0.45318,-0.55477 -0.6756,-0.50393 -0.13696,0.0313 -0.43855,0.0768 -0.67019,0.10112 l -0.42117,0.0442 v -0.348856 c 0,-0.19187 0.13378,-1.25274 0.2973,-2.35748 0.16351,-1.10475 0.29729,-2.03881 0.29729,-2.07569 0,-0.0369 0.14741,-0.0671 0.32757,-0.0671 0.26573,0 0.70061,0.23835 2.30405,1.26284 1.08707,0.69456 2.00926,1.30608 2.0493,1.35892 0.04,0.0529 0.0735,0.19697 0.0743,0.32027 0.001,0.18192 -0.0732,0.24974 -0.39488,0.35975 -0.21802,0.0746 -0.3964,0.17992 -0.3964,0.23411 0,0.187 1.83497,1.699266 2.45167,2.020496 0.34008,0.17716 0.97555,0.4356 1.41216,0.57433 l 0.79383,0.25225 v -3.018926 -3.01892 h -1.78658 -1.78658 l 0.0276,-1.18636 0.0276,-1.18636 1.75901,-0.0236 1.75901,-0.0236 v -0.50633 c 0,-0.46703 -0.0191,-0.51051 -0.24573,-0.56004 -0.40348,-0.0882 -1.26116,-0.55942 -1.71649,-0.94316 -1.16992,-0.98597 -1.68352,-2.41804 -1.41434,-3.94366 0.2025,-1.1477 0.85486,-2.09029 1.93224,-2.7919 0.68953,-0.44904 1.03999,-0.50445 3.2281,-0.51039 2.3884,-0.006 2.92797,0.1373 3.92946,1.04721 1.37472,1.24902 1.70956,3.42889 0.77947,5.07441 -0.4339,0.76763 -1.34934,1.54281 -2.27735,1.92843 l -0.64779,0.26917 v 0.47014 0.47013 h 1.62703 c 0.89487,0 1.69757,0.0236 1.78378,0.0524 0.13214,0.0441 0.15676,0.23381 0.15676,1.20793 v 1.15557 h -1.78379 -1.78378 v 3.01518 3.015176 l 0.55127,-0.16513 c 0.73492,-0.22014 1.67197,-0.6393 2.24221,-1.00297 0.50726,-0.32349 1.86418,-1.550006 1.86418,-1.685016 0,-0.0461 -0.17793,-0.14901 -0.39539,-0.22853 -0.34093,-0.12467 -0.39553,-0.18174 -0.3964,-0.41433 -9.2e-4,-0.25178 0.13582,-0.35668 2.05289,-1.57463 1.65672,-1.05254 2.11665,-1.30488 2.37838,-1.30488 0.17846,0 0.32448,0.0302 0.32448,0.0671 0,0.0369 0.13378,0.97094 0.2973,2.07569 0.16351,1.10475 0.2973,2.16171 0.2973,2.3488 0,0.332146 -0.008,0.340166 -0.35177,0.340166 -0.19347,0 -0.4779,-0.0568 -0.63207,-0.1262 l -0.2803,-0.126196 -0.45651,0.597726 c -0.57791,0.75668 -1.59007,1.69324 -2.43227,2.25061 -1.00541,0.66537 -2.67382,1.34587 -3.96382,1.61673 l -1.09918,0.23079 -1.9e-4,0.37098 c -2e-4,0.52083 -0.21721,0.84559 -0.61599,0.92196 -0.56329,0.10787 -1.90394,0.13895 -2.05984,0.0477 z m 1.44104,-16.645146 c 0.73844,-0.29204 1.24727,-1.03748 1.03694,-1.51914 -0.26125,-0.59827 -0.94602,-1.07967 -1.53577,-1.07967 -0.91187,0 -1.92522,1.01996 -1.6468,1.65754 0.21826,0.4998 1.05416,1.09297 1.54693,1.09774 0.10901,0.001 0.37842,-0.0694 0.5987,-0.15647 z"
         style="fill:#000000;stroke-width:0.09246813" />
      <path
         inkscape:connector-curvature="0"
         id="path855-2-6-0-8"
         d="m 163.10396,252.34986 c -0.0818,-0.0478 -0.25126,-0.0876 -0.37668,-0.0883 -0.27887,-0.002 -0.51521,-0.43352 -0.51521,-0.94152 v -0.34178 l -0.56982,-0.0979 c -2.81117,-0.48303 -5.36172,-1.94328 -6.87944,-3.93865 -0.38104,-0.50096 -0.45318,-0.55477 -0.6756,-0.50393 -0.13696,0.0313 -0.43855,0.0768 -0.67019,0.10112 l -0.42117,0.0442 v -0.34885 c 0,-0.19187 0.13378,-1.25274 0.2973,-2.35748 0.16351,-1.10475 0.29729,-2.03881 0.29729,-2.07569 0,-0.0369 0.14741,-0.0671 0.32757,-0.0671 0.26573,0 0.70061,0.23835 2.30405,1.26284 1.08707,0.69456 2.00926,1.30608 2.0493,1.35892 0.04,0.0529 0.0735,0.19697 0.0743,0.32027 0.001,0.18192 -0.0732,0.24974 -0.39488,0.35975 -0.21802,0.0746 -0.3964,0.17992 -0.3964,0.23411 0,0.187 1.83497,1.69926 2.45167,2.02049 0.34008,0.17716 0.97555,0.4356 1.41216,0.57433 l 0.79383,0.25225 v -3.01892 -3.01892 h -1.78658 -1.78658 l 0.0276,-1.18636 0.0276,-1.18636 1.75901,-0.0236 1.75901,-0.0236 v -0.50632 c 0,-0.46703 -0.0191,-0.51051 -0.24573,-0.56004 -0.40348,-0.0882 -1.26116,-0.55942 -1.71649,-0.94316 -1.16992,-0.98597 -1.68352,-2.41804 -1.41434,-3.94366 0.2025,-1.1477 0.85486,-2.09029 1.93224,-2.7919 0.68953,-0.44904 1.03999,-0.50445 3.2281,-0.51039 2.3884,-0.006 2.92797,0.1373 3.92946,1.04721 1.37472,1.24902 1.70956,3.42889 0.77947,5.07441 -0.4339,0.76763 -1.34934,1.54281 -2.27735,1.92843 l -0.64779,0.26917 v 0.47014 0.47013 h 1.62703 c 0.89487,0 1.69757,0.0236 1.78378,0.0524 0.13214,0.0441 0.15676,0.23381 0.15676,1.20793 v 1.15557 h -1.78379 -1.78378 v 3.01518 3.01517 l 0.55127,-0.16513 c 0.73492,-0.22014 1.67197,-0.6393 2.24221,-1.00297 0.50726,-0.32349 1.86418,-1.55 1.86418,-1.68501 0,-0.0461 -0.17793,-0.14901 -0.39539,-0.22853 -0.34093,-0.12467 -0.39553,-0.18174 -0.3964,-0.41433 -9.3e-4,-0.25178 0.13582,-0.35668 2.05289,-1.57463 1.65672,-1.05254 2.11665,-1.30488 2.37838,-1.30488 0.17846,0 0.32448,0.0302 0.32448,0.0671 0,0.0369 0.13378,0.97094 0.2973,2.07569 0.16351,1.10475 0.2973,2.16171 0.2973,2.3488 0,0.33214 -0.008,0.34016 -0.35177,0.34016 -0.19347,0 -0.4779,-0.0568 -0.63207,-0.1262 l -0.2803,-0.12619 -0.45651,0.59772 c -0.57791,0.75668 -1.59007,1.69324 -2.43227,2.25061 -1.00541,0.66537 -2.67382,1.34587 -3.96382,1.61673 l -1.09918,0.23079 -1.9e-4,0.37098 c -2e-4,0.52083 -0.21721,0.84559 -0.61599,0.92196 -0.56329,0.10787 -1.90394,0.13895 -2.05984,0.0477 z m 1.44104,-16.64514 c 0.73844,-0.29204 1.24727,-1.03748 1.03694,-1.51914 -0.26125,-0.59827 -0.94602,-1.07967 -1.53577,-1.07967 -0.91187,0 -1.92522,1.01996 -1.6468,1.65754 0.21826,0.4998 1.05416,1.09297 1.54693,1.09774 0.10901,0.001 0.37842,-0.0694 0.5987,-0.15647 z"
         style="fill:#000000;stroke-width:0.09246813" />
      <path
         inkscape:connector-curvature="0"
         id="path855-2-6-0-8-0"
         d="m 142.36456,224.55821 c -0.0818,-0.0478 -0.25126,-0.0876 -0.37668,-0.0883 -0.27887,-0.002 -0.51521,-0.43352 -0.51521,-0.94152 v -0.34178 l -0.56982,-0.0979 c -2.81117,-0.48303 -5.36172,-1.94328 -6.87944,-3.93865 -0.38104,-0.50096 -0.45318,-0.55477 -0.6756,-0.50393 -0.13696,0.0313 -0.43855,0.0768 -0.67019,0.10112 l -0.42117,0.0442 v -0.34885 c 0,-0.19187 0.13378,-1.25274 0.2973,-2.35748 0.16351,-1.10475 0.29729,-2.03881 0.29729,-2.07569 0,-0.0369 0.14741,-0.0671 0.32757,-0.0671 0.26573,0 0.70061,0.23835 2.30405,1.26284 1.08707,0.69456 2.00926,1.30608 2.0493,1.35892 0.04,0.0529 0.0735,0.19697 0.0743,0.32027 0.001,0.18192 -0.0732,0.24974 -0.39488,0.35975 -0.21802,0.0746 -0.3964,0.17992 -0.3964,0.23411 0,0.187 1.83497,1.69926 2.45167,2.02049 0.34008,0.17716 0.97555,0.4356 1.41216,0.57433 l 0.79383,0.25225 v -3.01892 -3.01892 h -1.78658 -1.78658 l 0.0276,-1.18636 0.0276,-1.18636 1.75901,-0.0236 1.75901,-0.0236 v -0.50632 c 0,-0.46703 -0.0191,-0.51051 -0.24573,-0.56004 -0.40348,-0.0882 -1.26116,-0.55941 -1.71649,-0.94315 -1.16992,-0.98597 -1.68352,-2.41804 -1.41434,-3.94366 0.2025,-1.1477 0.85486,-2.09029 1.93224,-2.7919 0.68953,-0.44904 1.03999,-0.50445 3.2281,-0.51039 2.3884,-0.006 2.92797,0.1373 3.92946,1.04721 1.37472,1.24902 1.70956,3.42889 0.77947,5.07441 -0.4339,0.76763 -1.34934,1.54281 -2.27735,1.92843 l -0.64779,0.26917 v 0.47014 0.47013 h 1.62703 c 0.89487,0 1.69757,0.0236 1.78378,0.0524 0.13214,0.0441 0.15676,0.23381 0.15676,1.20793 v 1.15557 h -1.78379 -1.78378 v 3.01518 3.01517 l 0.55127,-0.16513 c 0.73492,-0.22014 1.67197,-0.6393 2.24221,-1.00297 0.50726,-0.32349 1.86418,-1.55 1.86418,-1.68501 0,-0.0461 -0.17793,-0.14901 -0.39539,-0.22853 -0.34093,-0.12467 -0.39553,-0.18174 -0.3964,-0.41433 -9.3e-4,-0.25178 0.13582,-0.35668 2.05289,-1.57463 1.65672,-1.05254 2.11665,-1.30488 2.37838,-1.30488 0.17846,0 0.32448,0.0302 0.32448,0.0671 0,0.0369 0.13378,0.97094 0.2973,2.07569 0.16351,1.10475 0.2973,2.16171 0.2973,2.3488 0,0.33214 -0.008,0.34016 -0.35177,0.34016 -0.19347,0 -0.4779,-0.0568 -0.63207,-0.1262 l -0.2803,-0.12619 -0.45651,0.59772 c -0.57791,0.75668 -1.59007,1.69324 -2.43227,2.25061 -1.00541,0.66537 -2.67382,1.34587 -3.96382,1.61673 l -1.09918,0.23079 -1.9e-4,0.37098 c -2e-4,0.52083 -0.21721,0.84559 -0.61599,0.92196 -0.56329,0.10787 -1.90394,0.13895 -2.05984,0.0477 z m 1.44104,-16.64514 c 0.73844,-0.29204 1.24727,-1.03748 1.03694,-1.51914 -0.26125,-0.59827 -0.94602,-1.07967 -1.53577,-1.07967 -0.91187,0 -1.92522,1.01996 -1.6468,1.65754 0.21826,0.4998 1.05416,1.09297 1.54693,1.09774 0.10901,0.001 0.37842,-0.0694 0.5987,-0.15647 z"
         style="fill:#000000;stroke-width:0.09246813" />
    </g>
    <path
       style="fill:#000000;stroke-width:0.08609331"
       d="m 178.00958,270.5143 c -0.0315,-0.0511 -0.13232,-0.093 -0.22407,-0.093 -0.15496,0 -0.16681,-0.067 -0.16681,-0.94387 0,-1.19487 0.047,-1.25755 1.23446,-1.64579 l 0.84772,-0.27716 -0.0564,-3.07285 c -0.031,-1.69007 -0.0769,-3.21484 -0.10195,-3.38837 l -0.0455,-0.31553 -0.74577,0.20036 c -0.41017,0.11019 -2.21539,0.60878 -4.01159,1.10796 -4.08093,1.13414 -3.70732,1.0481 -3.86487,0.88999 -0.1059,-0.10627 -0.13146,-0.37522 -0.13146,-1.38352 0,-0.74138 0.035,-1.27335 0.0859,-1.30492 0.0473,-0.0293 0.0871,-0.11893 0.0885,-0.19914 0.002,-0.10403 1.21865,-0.78429 4.24435,-2.37283 l 4.24176,-2.22699 -0.0457,-2.73587 c -0.0504,-3.0201 -0.0379,-3.12233 0.45344,-3.69833 0.35261,-0.41339 0.5932,-0.47218 1.9323,-0.47218 1.59411,0 1.84697,0.11757 2.26021,1.05097 0.16157,0.36494 0.16815,0.52702 0.12677,3.12354 l -0.0436,2.73862 4.27623,2.25163 c 4.03269,2.1234 4.27921,2.26661 4.32865,2.5147 0.068,0.34125 0.0682,2.51467 2.6e-4,2.6924 -0.0287,0.075 -0.11571,0.1354 -0.19337,0.13414 -0.0777,-9.8e-4 -2.0169,-0.52051 -4.30942,-1.15391 l -4.16821,-1.15162 -0.0543,0.31302 c -0.0299,0.17216 -0.082,1.69602 -0.11587,3.38632 l -0.0616,3.07331 0.84638,0.27671 c 1.18594,0.38773 1.23312,0.45068 1.23312,1.64534 0,0.85143 -0.0152,0.94387 -0.1547,0.94387 -0.0851,0 -0.19807,0.0435 -0.25108,0.0967 -0.0955,0.0958 -0.44188,0.0805 -1.74279,-0.077 -0.30724,-0.0372 -0.86239,-0.17997 -1.23367,-0.31725 l -0.67503,-0.2496 -0.74302,0.24755 c -1.01806,0.33919 -2.94028,0.58585 -3.05933,0.39256 z"
       id="path868-9"
       inkscape:connector-curvature="0" />
  </g>
</svg>
