<?xml version="1.0" encoding="UTF-8" standalone="no"?>
<!-- Created with Inkscape (http://www.inkscape.org/) -->

<svg
   width="255"
   height="255"
   viewBox="0 0 67.468752 67.468759"
   version="1.1"
   id="svg8"
   xmlns="http://www.w3.org/2000/svg"
   xmlns:svg="http://www.w3.org/2000/svg"
   xmlns:rdf="http://www.w3.org/1999/02/22-rdf-syntax-ns#"
   xmlns:cc="http://creativecommons.org/ns#"
   xmlns:dc="http://purl.org/dc/elements/1.1/">
  <defs
     id="defs2" />
  <metadata
     id="metadata5">
    <rdf:RDF>
      <cc:Work
         rdf:about="">
        <dc:format>image/svg+xml</dc:format>
        <dc:type
           rdf:resource="http://purl.org/dc/dcmitype/StillImage" />
      </cc:Work>
    </rdf:RDF>
  </metadata>
  <g
     id="layer1"
     transform="translate(0,-229.53123)">
    <path
       id="path896"
       transform="matrix(0.26458333,0,0,0.26458333,0,229.53123)"
       style="fill:#000000;fill-opacity:1;stroke-width:1.03142107"
       d="m 155,87.000001 -1,3 C 140.44897,89.977321 138.29883,90 138.29883,90 135,90.000001 125,105 125,105 c -15.5966,0 -82,9 -85,10 -3,1 -9,8.66518 -9,10 L 0,120 c 0,4 2,5 5.0000001,6 15.1041979,12.57275 65.9398819,28.7477 75.0000009,29 H 235 c 1,0 5,-20 5,-20 l 6,-2 c 1,0 -1,-7 -3,-8 h -53 c 0,0 -4,0 -4,-1 -1,0 -1,-14 -1,-14 0,-3.31755 9,-5 10,-6 1,-1 1,-2 0,-3 -1,0 -20,4 -20,4 0,0 -4.78632,-15 -10.10547,-15 l -4.89453,10e-7 -1,-3 c 0,0 5,0.201851 5,-1 0,-1 -14,-1 -14,0 0,1.20185 5,1 5,1 z M 138.29883,95 h 5.31836 v 10 H 130 c 0,0 5.00096,-10 8.29883,-10 z m 8.70117,10e-7 h 9 V 105 h -9 z M 159.57422,95 h 5.32031 c 3.10547,10e-7 5.31836,10 5.31836,10 H 159.57422 Z M 125,110 h 18.61719 v 20 H 80 l -44,-4 c 0,0 3,-6 6.000001,-7 C 45,118 109.15884,110 125,110 Z m 34.57422,0 H 180 v 20 H 159.57422 Z M 110,114 95,115 v 11 h 15 z m -20,2 -15,1 v 9 h 15 z m 40,-2 v 12 h -15 v -12 z m -60,4 c -3.618363,0 -13.806063,0.63262 -19.999999,3 L 50,126 h 20 z m -58,8 c 10,5 51.829662,9 67.787109,9 H 235 c 0,0 -4,15 -5,15 H 80.000001 C 69.367711,149.6425 12,129 12,126 Z" />
  </g>
</svg>
