<?xml version="1.0" encoding="UTF-8" standalone="no"?>
<!-- Created with Inkscape (http://www.inkscape.org/) -->

<svg
   width="512"
   height="512"
   viewBox="0 0 135.46667 135.46668"
   version="1.1"
   id="svg8"
   xmlns="http://www.w3.org/2000/svg"
   xmlns:svg="http://www.w3.org/2000/svg"
   xmlns:rdf="http://www.w3.org/1999/02/22-rdf-syntax-ns#"
   xmlns:cc="http://creativecommons.org/ns#"
   xmlns:dc="http://purl.org/dc/elements/1.1/">
  <defs
     id="defs2" />
  <metadata
     id="metadata5">
    <rdf:RDF>
      <cc:Work
         rdf:about="">
        <dc:format>image/svg+xml</dc:format>
        <dc:type
           rdf:resource="http://purl.org/dc/dcmitype/StillImage" />
      </cc:Work>
    </rdf:RDF>
  </metadata>
  <g
     id="layer1"
     transform="translate(0,-161.53331)">
    <path
       id="path827"
       style="fill:#000000;stroke-width:0.39193052"
       d="m 58.208333,220.27081 c -2.645833,0 -5.291666,2.64583 -6.614583,3.96875 h -6.614583 c 0,0 -5.291667,5.29167 -9.260417,2.64583 -2.645833,-1.32291 -9.985066,-2.8136 -11.90625,-1.32291 -2.337106,1.81341 -2.645833,6.61458 -3.96875,7.9375 -1.49576,0.11678 -7.9375,1.32291 -7.9375,1.32291 0,0 -2.6458333,-7.9375 -3.96875,-9.26041 -1.3229167,-1.32292 -3.96875,-1.32292 -5.2916667,0 -1.3229166,1.32291 3.96875,19.8437 5.2916667,21.16661 2.645833,1.32292 27.78125,2.64579 27.78125,2.64579 h 66.14583 c 0,0 10.76221,0.11079 15.875,-1.32292 3.79769,-1.06493 7.78833,-2.4961 10.58334,-5.29167 2.05764,-2.05804 6.54134,-7.00176 3.96875,-7.9375 -15.875,-6.61458 -44.97917,-7.9374 -44.97917,-7.9374 L 79.375,214.97914 c -0.264583,-0.79375 -1.322917,-1.32291 -2.645833,-1.32291 H 67.46875 v -3.96875 h -2.645833 c -1.322917,0 -5.291667,10.58333 -6.614584,10.58333 z M 63.5,214.97914 h 13.229167 c 1.322916,0 9.260416,11.90625 7.9375,11.90625 h -31.75 c -1.322917,0 3.96875,-5.29166 5.291666,-5.29166 h 1.322917 c 1.322917,0 2.645833,-6.61459 3.96875,-6.61459 z m 2.645833,2.64584 c -1.322916,0 -5.291666,3.96875 -3.96875,3.96875 h 7.9375 v -3.96875 z m 5.291667,0 v 3.96875 h 7.9375 c 1.322917,0 -2.645834,-3.96875 -3.96875,-3.96875 z m -11.90625,5.29166 c -1.322917,0 -3.96875,2.66946 -2.645833,2.64584 h 25.135416 c 1.322917,0 -1.322916,-2.64584 -2.645833,-2.64584 z m -34.395833,3.96875 c 3.902181,-0.4297 9.938792,1.50598 13.229166,3.96875 -2.645833,1.32292 -15.875,2.64584 -15.875,2.64584 0,0 1.187431,-6.14493 2.645834,-6.61459 z m 26.458333,1.32292 h 34.395833 c 0,0 29.104167,1.32292 44.985787,7.98129 -15.88162,-4.01254 -44.985787,-6.65837 -44.985787,-6.65837 H 51.59375 c -1.322917,0 0,-1.32292 0,-1.32292 z M 5.2916667,225.56248 c 1.3229163,1e-5 5.2916663,10.58333 5.2916663,10.58333 3.96875,0 25.135417,-1.32292 30.427084,-5.29167 -1.985128,-0.7103 -5.291667,-2.64583 -1.209411,-2.50949 2.532327,-0.13634 3.855244,-1.45926 3.855244,1.18658 0,5.29166 -15.875,6.61458 -30.427083,6.61458 0,0 -1.063135,1.91305 -1.322917,3.96875 7.063782,1.13919 23.8125,1.32292 23.8125,1.32292 h 66.14583 c 6.27036,-0.32557 10.72334,-0.46723 16.05086,-1.07722 3.5114,-0.40205 7.10717,-1.22571 10.46593,-1.69962 -2.88935,4.51787 -6.6605,5.40831 -10.64179,6.74559 -5.03364,1.69074 -15.875,1.32291 -15.875,1.32291 H 35.71875 c 0,0 -25.135417,-1.32291 -26.4583333,-2.64583 0,-1.32292 -5.2916667,-17.19792 -5.2916667,-18.52083 z m 41.0104163,-1.32292 c 2.645834,0 0,5.29167 -1.322916,5.29167 -1.322917,0 1.322916,-5.29167 1.322916,-5.29167 z m 2.645834,0 c 2.645833,0 0,5.29167 -1.322917,5.29167 -1.322917,0 1.322917,-5.29167 1.322917,-5.29167 z m 37.041666,7.9375 c 0,0 17.536617,4.84946 9.260417,6.61458 H 72.760417 v -6.61458 z m -17.197916,0 v 6.61458 H 46.302083 c -2.645833,0 1.322917,-6.61458 3.96875,-6.61458 z m 42.294763,2.38568 c 11.94482,1.58307 11.94482,2.90599 0.0386,2.90599 -9.26042,-1.32292 -9.26042,-2.64584 -0.0386,-2.90599 z m 13.30899,5.4317 c -12.53756,3.48429 3.79829,1.73331 0,0 z m -52.95792,2.76595 v 2.64584 h 26.458333 v -2.64584 z m -7.9375,0 v 2.64584 h -5.291667 v -2.64584 z" />
  </g>
</svg>
