<?xml version="1.0" encoding="UTF-8" standalone="no"?>
<!-- Created with Inkscape (http://www.inkscape.org/) -->

<svg xmlns:dc="http://purl.org/dc/elements/1.1/" xmlns:cc="http://creativecommons.org/ns#" xmlns:rdf="http://www.w3.org/1999/02/22-rdf-syntax-ns#"
    xmlns="http://www.w3.org/2000/svg" xmlns:sodipodi="http://sodipodi.sourceforge.net/DTD/sodipodi-0.dtd"
    xmlns:inkscape="http://www.inkscape.org/namespaces/inkscape" width="1200" height="1200" viewBox="0 0 317.5 317.50003"
    version="1.1" id="svg8" inkscape:version="0.92.3 (2405546, 2018-03-11)" sodipodi:docname="本土地図.svg"
    inkscape:export-filename="E:\projects\AndroidStudio\OKISchedule\app\src\main\res\drawable\map_scale2_hondo.png"
    inkscape:export-xdpi="65.559998" inkscape:export-ydpi="65.559998">
  <defs
     id="defs2" />
  <sodipodi:namedview
     id="base"
     pagecolor="#ffffff"
     bordercolor="#666666"
     borderopacity="1.0"
     inkscape:pageopacity="0.0"
     inkscape:pageshadow="2"
     inkscape:zoom="0.175"
     inkscape:cx="-724.47953"
     inkscape:cy="692.73374"
     inkscape:document-units="mm"
     inkscape:current-layer="layer1"
     showgrid="false"
     units="px"
     inkscape:window-width="1366"
     inkscape:window-height="745"
     inkscape:window-x="-8"
     inkscape:window-y="-8"
     inkscape:window-maximized="1" />
  <metadata
     id="metadata5">
    <rdf:RDF>
      <cc:Work
         rdf:about="">
        <dc:format>image/svg+xml</dc:format>
        <dc:type
           rdf:resource="http://purl.org/dc/dcmitype/StillImage" />
        <dc:title />
      </cc:Work>
    </rdf:RDF>
  </metadata>
  <g
     inkscape:label="レイヤー 1"
     inkscape:groupmode="layer"
     id="layer1"
     transform="translate(0,20.500027)">
    <g
       id="g989"
       inkscape:export-filename="C:\Users\hm\Documents\CocosProjects\TTable-OKI\地図\g989.png"
       inkscape:export-xdpi="65.559998"
       inkscape:export-ydpi="65.559998"
       transform="matrix(1.4350722,0,0,1.4350722,-35.397003,-128.97313)">
      <rect
         y="-226.99083"
         x="-63.314999"
         height="550.06689"
         width="390.8833"
         id="rect877"
         style="opacity:1;fill:#3c98ff;fill-opacity:0.53684238;stroke:none;stroke-width:0.76463109;stroke-miterlimit:4;stroke-dasharray:none;stroke-opacity:1" />
      <path
         d="M 151.54132,-36.86945 A 50.119049,45.205357 0 0 1 103.8448,8.283069 50.119049,45.205357 0 0 1 51.537411,-32.50451 a 50.119049,45.205357 0 0 1 42.63991,-49.095495 50.119049,45.205357 0 0 1 56.429439,36.041467"
         sodipodi:open="true"
         sodipodi:end="6.0897679"
         sodipodi:start="0"
         sodipodi:ry="45.205357"
         sodipodi:rx="50.119049"
         sodipodi:cy="-36.86945"
         sodipodi:cx="101.42227"
         sodipodi:type="arc"
         id="path819"
         style="opacity:1;fill:#3cffff;fill-opacity:0.96153846;stroke:none;stroke-width:1.36484277;stroke-miterlimit:4;stroke-dasharray:none;stroke-opacity:1" />
      <path
         d="m 227.60746,-105.84283 a 51.837978,51.837978 0 0 1 -49.33236,51.777391 51.837978,51.837978 0 0 1 -54.10137,-46.772011 51.837978,51.837978 0 0 1 44.10233,-56.29889 51.837978,51.837978 0 0 1 58.36479,41.32954"
         sodipodi:open="true"
         sodipodi:end="6.0897679"
         sodipodi:start="0"
         sodipodi:ry="51.837978"
         sodipodi:rx="51.837978"
         sodipodi:cy="-105.84283"
         sodipodi:cx="175.76949"
         sodipodi:type="arc"
         id="path819-9"
         style="opacity:1;fill:#3cffff;fill-opacity:0.96153846;stroke:none;stroke-width:1.48639536;stroke-miterlimit:4;stroke-dasharray:none;stroke-opacity:1" />
    </g>
    <path
       style="fill:#80ff80;fill-opacity:1;stroke:#000000;stroke-width:0.78673708;stroke-opacity:1"
       d="m -48.037803,301.34297 c 10.653376,-10.91219 3.896974,-35.87637 -13.062996,-35.73078 -14.144971,-8.67867 11.23333,-20.4201 21.125739,-16.78388 2.933468,-13.00884 22.256041,9.88167 27.961193,-4.62309 -1.880488,-5.45851 -14.310247,-9.47607 -0.470315,-8.86027 6.9131664,1.86827 11.64580743,-2.99266 17.1067924,-6.27182 11.0133066,-13.28021 27.5883626,-14.94208 44.3791226,-14.77224 10.191183,-3.9393 23.993473,-3.98841 32.186851,-7.86794 -5.1196,-17.68292 19.754436,-4.22678 26.405356,-10.17576 -2.30586,-8.91179 10.19005,-6.10982 6.32273,-16.89227 11.9777,-6.73047 26.08787,2.0683 38.05503,6.11305 13.31367,5.68564 22.21279,-10.41865 35.85621,-7.57293 13.62467,0.40575 36.60308,-1.348 42.99661,9.52263 -10.1513,8.11325 -32.90776,-1.86892 -36.59587,11.20925 8.97767,8.63463 19.96789,16.34841 28.99189,26.1436 13.72615,7.31994 27.84393,17.31368 44.31731,13.06415 16.58237,1.32407 5.3473,-25.99043 23.78507,-20.50477 15.56642,-5.48445 29.30719,-14.29871 46.78332,-14.92801 13.09396,-1.11066 23.94165,9.59261 36.95452,9.04568 v 92.04824 H -50.071623 c 0.67794,-0.72096 1.35588,-1.44188 2.03382,-2.16284 z m 275.541793,-42.6805 c 6.85238,-17.44237 -32.0415,-12.21541 -32.0415,-27.52576 -9.50421,-9.50421 -12.18211,-20.29212 -1.23384,-32.49979 -11.44345,0.14036 -33.3829,18.71797 -45.22447,20.99318 -2.07446,14.05073 13.34433,13.662 18.39545,4.58101 12.77448,4.09783 1.07513,-12.18582 14.9615,-6.51322 6.12312,3.99531 -6.16856,9.60122 -2.1637,17.16644 -12.7978,-10.65322 -30.3401,7.79525 -45.66,4.45858 -13.29848,4.91114 -8.71871,0.99352 10.57571,3.20746 25.9392,-19.16219 19.44235,10.35906 31.16754,7.5605 7.39791,-6.13719 17.38655,-11.85299 23.69461,-1.02335 7.83087,5.18384 21.13425,4.91142 26.25025,11.24161 l 0.47922,-1.16297 0.79923,-0.48372 z m -148.287377,0.28635 c 10.289649,-1.92568 17.448781,-6.55897 28.298347,-6.4754 13.24293,-3.74436 9.5902,-16.94944 -3.08029,-16.30179 -14.495798,-7.18485 -31.860552,-6.63874 -46.027832,1.39514 -11.543766,2.4991 -28.488519,5.80709 -15.611705,17.16497 7.621883,9.7296 25.6494,3.22306 36.42148,4.21708 z"
       id="path843"
       inkscape:connector-curvature="0"
       sodipodi:nodetypes="ccccccccccccccccccccccccccccccccccccccccccc" />
    <g
       transform="matrix(1.1208389,0,0,1.1208389,-12.045071,-374.25087)"
       id="g853"
       style="fill:#80ff80;fill-opacity:1">
      <path
         sodipodi:nodetypes="cccccccccccccccccccccccccccccccccc"
         inkscape:connector-curvature="0"
         id="path838"
         d="m 83.811304,197.30774 -11.856626,-24.43915 5.055832,-6.53777 -0.248267,5.61034 3.088181,1.58948 -0.680209,-7.3325 8.559192,-0.6596 -1.01444,-12.75364 4.509247,9.05203 -3.494807,3.70161 3.462042,9.26582 5.68634,9.4369 12.824511,-1.45183 2.79499,-12.07059 -8.84429,-11.15872 2.16768,-7.24344 15.51347,-2.79484 6.50389,-12.81738 -7.51328,-2.45116 -15.52773,5.57752 -13.484596,-4.22591 -4.597467,17.17999 -5.335543,-2.20709 -4.464321,3.53795 -0.362959,-2.90367 1.209862,-3.14564 -4.839441,1.8148 -11.130709,12.34057 4.597468,1.45183 -6.775215,3.3876 -1.479929,15.43316 5.093571,-0.35699 -4.637723,1.69874 z"
         style="fill:#80ff80;fill-opacity:1;stroke:#000000;stroke-width:0.3387607px;stroke-linecap:butt;stroke-linejoin:miter;stroke-opacity:1" />
    </g>
    <g
       transform="matrix(1.1208389,0,0,1.1208389,-12.045071,-374.25087)"
       id="g846"
       style="fill:#80ff80;fill-opacity:1">
      <path
         sodipodi:nodetypes="cccccccccccccccc"
         inkscape:connector-curvature="0"
         id="path842"
         d="m 88.444891,216.51369 9.752703,-3.07981 2.224296,3.76421 1.711,-3.42201 2.3954,3.42199 1.0266,-7.5284 4.61971,4.61972 6.1596,-1.5399 0.81272,6.11681 4.66247,-0.12832 -1.19769,-8.8972 4.44859,-4.6197 -11.97699,2.90871 -11.46371,-7.52841 -15.583986,-0.38494 z"
         style="fill:#80ff80;fill-opacity:1;stroke:#000000;stroke-width:0.3387607px;stroke-linecap:butt;stroke-linejoin:miter;stroke-opacity:1" />
      <path
         inkscape:connector-curvature="0"
         id="path844"
         d="m 111.80005,216.2998 2.5665,-0.6844 -0.38498,3.89253 z"
         style="fill:#80ff80;fill-opacity:1;stroke:#000000;stroke-width:0.3387607px;stroke-linecap:butt;stroke-linejoin:miter;stroke-opacity:1" />
      <path
         sodipodi:nodetypes="ccccc"
         inkscape:connector-curvature="0"
         id="path846"
         d="m 127.84067,215.57264 -0.8555,1.88209 0.81273,1.36881 0.98381,-1.62547 z"
         style="fill:#80ff80;fill-opacity:1;stroke:#000000;stroke-width:0.3387607px;stroke-linecap:butt;stroke-linejoin:miter;stroke-opacity:1" />
    </g>
    <g
       transform="matrix(1.1208389,0,0,1.1208389,-12.045071,-374.25087)"
       id="g850"
       style="fill:#80ff80;fill-opacity:1">
      <path
         sodipodi:nodetypes="cccccccccccccccccccccccccccccccccccccccccccc"
         inkscape:connector-curvature="0"
         id="path848"
         d="m 120.86835,165.69698 3.56893,10.49937 -1.67452,0.80361 1.99685,0.76565 -1.98589,8.08322 0.23337,9.96175 4.95478,-2.09117 -1.66592,-2.18277 6.32,-1.69527 -2.40547,-2.63738 10.17082,0.37511 -2.75124,-3.33896 3.98541,-1.60218 -4.12715,-2.2329 7.19835,-0.66719 -8.42185,-4.77864 10.01187,2.287 -1.47607,-5.76709 3.44372,1.8318 3.50755,-0.5133 1.45434,-2.90871 5.04746,2.7376 2.2243,-1.28324 -8.46945,-4.36305 -6.92956,1.79655 -1.45434,-5.73186 2.82315,-1.28325 -0.59885,-8.29835 3.2509,-1.19769 -3.42201,-2.22431 3.42201,-2.2243 -3.29368,-2.7376 -8.59778,-0.68441 -4.87635,2.13874 -2.22429,3.50756 0.92281,6.20111 -1.63227,2.44123 -2.11547,-2.11684 0.001,-6.65382 -2.0532,1.15492 -0.5133,6.58735 -2.52843,-2.82934 -5.42772,4.79699 z"
         style="fill:#80ff80;fill-opacity:1;stroke:#000000;stroke-width:0.3387607px;stroke-linecap:butt;stroke-linejoin:miter;stroke-opacity:1" />
      <path
         sodipodi:nodetypes="ccccccc"
         inkscape:connector-curvature="0"
         id="path850"
         d="m 162.49133,143.28751 -3.32712,5.89806 2.2685,0.93764 1.20986,3.87155 3.35736,-5.47461 -2.23824,-1.37622 z"
         style="fill:#80ff80;fill-opacity:1;stroke:#000000;stroke-width:0.3387607px;stroke-linecap:butt;stroke-linejoin:miter;stroke-opacity:1" />
    </g>
    <g
       transform="matrix(1.1208389,0,0,1.1208389,-12.045071,-374.25087)"
       id="g857"
       style="fill:#80ff80;fill-opacity:1">
      <path
         inkscape:connector-curvature="0"
         id="path852"
         d="m 167.59824,134.30239 5.46585,-3.6164 -4.06436,-0.26788 z"
         style="fill:#80ff80;fill-opacity:1;stroke:#000000;stroke-width:0.27126631px;stroke-linecap:butt;stroke-linejoin:miter;stroke-opacity:1" />
      <path
         sodipodi:nodetypes="ccccccccccccccccccccccccccccccccc"
         inkscape:connector-curvature="0"
         id="path854"
         d="m 210.26811,115.56468 16.7678,1.71099 -0.34221,-11.1215 -6.1596,-3.2509 6.6729,-1.02659 2.5665,-8.554996 3.7642,4.961885 -3.7642,6.330701 13.0036,-3.76419 7.8706,-19.505408 -0.0623,-15.195643 -5.61513,-4.550268 -2.87752,-14.131886 -14.44118,-12.25336 -19.16027,-3.859389 -2.70614,-4.343337 -5.97634,7.953633 -19.31208,4.289652 -14.3724,15.056801 6.95134,2.962371 -7.97794,0.801836 0.3422,13.003597 -3.76421,4.106395 4.10641,2.395404 -2.0532,9.239391 5.81739,5.475213 2.39541,9.923788 5.8174,5.81741 5.81742,0.34219 0.3422,6.50181 21.2164,5.47521 3.07979,-8.89722 z"
         style="fill:#80ff80;fill-opacity:1;stroke:#000000;stroke-width:0.3387607px;stroke-linecap:butt;stroke-linejoin:miter;stroke-opacity:1" />
    </g>
    <path
       style="fill:#000000;stroke-width:0.12542023"
       d="m 18.456172,274.71869 c -0.04595,-0.0743 -0.193098,-0.13517 -0.326993,-0.13517 -0.226141,0 -0.243435,-0.0974 -0.243435,-1.37261 0,-1.73763 0.06859,-1.8288 1.801513,-2.39341 l 1.237114,-0.40304 -0.08238,-4.46868 c -0.04528,-2.45776 -0.112219,-4.67516 -0.148769,-4.92751 l -0.06647,-0.45886 -1.088346,0.29138 c -0.598595,0.16025 -3.233026,0.88532 -5.854309,1.61123 -5.9555106,1.64933 -5.4102776,1.52421 -5.6402066,1.29429 -0.154542,-0.15456 -0.191843,-0.54569 -0.191843,-2.012 0,-1.07814 0.05111,-1.85175 0.125433,-1.89766 0.06904,-0.0426 0.127114,-0.17296 0.129188,-0.28959 0.0022,-0.1513 1.778435,-1.14056 6.1939796,-3.45068 l 6.190214,-3.2386 -0.06658,-3.97861 c -0.07353,-4.39196 -0.05526,-4.54062 0.661732,-5.37828 0.514566,-0.60117 0.86568,-0.68667 2.819885,-0.68667 2.326369,0 2.695371,0.171 3.29845,1.52839 0.235779,0.53068 0.245385,0.76638 0.184994,4.54237 l -0.06366,3.98262 6.240506,3.27442 c 5.885111,3.08793 6.244866,3.2962 6.317026,3.65699 0.09919,0.49626 0.09953,3.65695 2.91e-4,3.91539 -0.04192,0.10906 -0.168854,0.19691 -0.282193,0.19511 -0.113328,0 -2.943357,-0.75699 -6.288949,-1.67809 l -6.082871,-1.67473 -0.07924,0.4552 c -0.0436,0.25035 -0.119683,2.46642 -0.169079,4.92454 l -0.08989,4.46933 1.235154,0.40242 c 1.730709,0.56384 1.799551,0.65539 1.799551,2.39273 0,1.23817 -0.02208,1.37261 -0.225759,1.37261 -0.124155,0 -0.289053,0.0633 -0.366414,0.14063 -0.139342,0.13934 -0.644852,0.1171 -2.543329,-0.11197 -0.44838,-0.0541 -1.258534,-0.26174 -1.800347,-0.46135 l -0.985128,-0.36299 -1.084311,0.36 c -1.485706,0.49325 -4.290908,0.85197 -4.464627,0.57086 z"
       id="path868"
       inkscape:connector-curvature="0" />
    <path
       style="fill:#000000;stroke-width:0.37969616"
       d=""
       id="path866"
       inkscape:connector-curvature="0" />
    <path
       style="fill:#000000;stroke-width:0.12542023"
       d="m 213.81689,-234.94132 c -0.046,-0.0743 -0.19309,-0.13518 -0.32699,-0.13518 -0.22615,0 -0.24343,-0.0974 -0.24343,-1.37261 0,-1.73763 0.0686,-1.82879 1.80148,-2.39339 l 1.23714,-0.40305 -0.0824,-4.46867 c -0.0454,-2.45778 -0.11221,-4.67517 -0.14878,-4.92752 l -0.0665,-0.45885 -1.08836,0.29136 c -0.59857,0.16025 -3.23301,0.88532 -5.8543,1.61125 -5.95552,1.64931 -5.4103,1.5242 -5.64021,1.29427 -0.15453,-0.15455 -0.19185,-0.54567 -0.19185,-2.01199 0,-1.07814 0.0511,-1.85176 0.12545,-1.89767 0.069,-0.0426 0.12713,-0.17295 0.12915,-0.2896 0.003,-0.15128 1.77844,-1.14054 6.194,-3.45067 l 6.19021,-3.23859 -0.0666,-3.97863 c -0.0736,-4.39196 -0.0553,-4.54062 0.66173,-5.37826 0.51456,-0.60119 0.86568,-0.68667 2.81989,-0.68667 2.32635,0 2.69536,0.17098 3.29843,1.52836 0.23579,0.53071 0.2454,0.76643 0.185,4.54238 l -0.0637,3.98264 6.24053,3.27442 c 5.88509,3.08795 6.24487,3.2962 6.31702,3.65698 0.0993,0.49627 0.0996,3.65695 0,3.91541 -0.0419,0.10906 -0.16886,0.19691 -0.28221,0.19508 -0.11337,-0.001 -2.94337,-0.75696 -6.28895,-1.67807 l -6.08289,-1.67475 -0.0792,0.45523 c -0.0436,0.25036 -0.1197,2.4664 -0.16907,4.92453 l -0.0899,4.46933 1.23515,0.40242 c 1.73072,0.56384 1.79955,0.65538 1.79955,2.39272 0,1.23818 -0.022,1.37261 -0.22573,1.37261 -0.12414,0 -0.28906,0.0633 -0.36643,0.14064 -0.13935,0.13935 -0.64483,0.1171 -2.54332,-0.11197 -0.44839,-0.0541 -1.25854,-0.26171 -1.80038,-0.46135 l -0.9851,-0.36298 -1.08432,0.36 c -1.48569,0.49326 -4.29089,0.85195 -4.46461,0.57087 z"
       id="path868-6"
       inkscape:connector-curvature="0" />
    <g
       transform="matrix(1.4344751,0,0,1.4344751,-35.304113,-128.84543)"
       id="g856">
      <path
         sodipodi:nodetypes="csc"
         inkscape:connector-curvature="0"
         id="path847"
         d="m 155.5496,213.84161 c 3.10545,-5.12399 31.85944,-15.58908 41.58684,-43.74101 23.4555,-67.88223 21.79222,-212.340164 -3.40795,-261.448181"
         style="fill:none;stroke:#000000;stroke-width:0.79374999;stroke-linecap:butt;stroke-linejoin:miter;stroke-miterlimit:4;stroke-dasharray:none;stroke-opacity:1" />
      <path
         sodipodi:nodetypes="czc"
         inkscape:connector-curvature="0"
         id="path849"
         d="m 160.00982,228.28821 c 58.06788,7.11484 58.1329,-54.08351 59.37754,-76.50594 1.24464,-22.42243 -6.76006,-230.278661 -25.65887,-243.129851"
         style="fill:none;stroke:#000000;stroke-width:0.79374999;stroke-linecap:butt;stroke-linejoin:miter;stroke-miterlimit:4;stroke-dasharray:none;stroke-opacity:1" />
      <path
         sodipodi:nodetypes="cccccccc"
         inkscape:connector-curvature="0"
         id="path851"
         d="m 155.5496,213.84161 c 0,0 4.65675,-183.156192 -12.6746,-213.1749726 -10.33821,-32.6548174 -38.2809,-9.0270276 -38.2809,-9.0270276 6.94901,-41.0258728 -7.365372,-37.9345188 -7.365372,-37.9345188 0,0 12.710372,-11.643989 16.452142,-1.487747 -3.87541,-13.229842 15.58699,-26.389991 15.58699,-26.389991 28.9885,-10.349255 37.17149,12.637009 55.23984,10.08656 26.6523,-5.023135 9.22079,-27.261494 9.22079,-27.261494"
         style="fill:none;stroke:#000000;stroke-width:0.79374999;stroke-linecap:butt;stroke-linejoin:miter;stroke-miterlimit:4;stroke-dasharray:none;stroke-opacity:1" />
      <path
         sodipodi:nodetypes="ccc"
         inkscape:connector-curvature="0"
         id="path853"
         d="m 113.68087,-47.782658 c -15.558622,-13.921483 -2.59545,14.479394 -7.8421,37.422664 85.3298,-50.466889 165.74757,254.531004 54.17105,238.648194"
         style="fill:none;stroke:#000000;stroke-width:0.79374999;stroke-linecap:butt;stroke-linejoin:miter;stroke-miterlimit:4;stroke-dasharray:none;stroke-opacity:1" />
      <path
         sodipodi:nodetypes="ccc"
         inkscape:connector-curvature="0"
         d="M 43.706978,266.08467 179.83997,-89.061214 c 28.21629,12.868857 55.77112,25.454233 83.98741,38.32309"
         style="fill:none;stroke:#000000;stroke-width:1.32291663;stroke-linecap:butt;stroke-linejoin:miter;stroke-miterlimit:4;stroke-dasharray:3.96875, 3.96875;stroke-dashoffset:0;stroke-opacity:1"
         id="path887" />
    </g>
    <g
       transform="matrix(1.2640681,0,0,1.2640681,9.4084474,-127.03129)"
       id="g938">
      <path
         inkscape:connector-curvature="0"
         id="path855"
         d="m 61.240291,-47.834644 c -0.08176,-0.0478 -0.251262,-0.0876 -0.376678,-0.0883 -0.27887,-0.002 -0.515214,-0.43352 -0.515214,-0.94152 v -0.34178 l -0.56982,-0.0979 c -2.811166,-0.48303 -5.361713,-1.94328 -6.879432,-3.93865 -0.381041,-0.50096 -0.453184,-0.55477 -0.675608,-0.50393 -0.136958,0.0313 -0.438542,0.0768 -0.670186,0.10112 l -0.421171,0.0442 v -0.34886 c 0,-0.19187 0.133784,-1.25274 0.297297,-2.35748 0.163514,-1.10475 0.297298,-2.03881 0.297298,-2.07569 0,-0.0369 0.147402,-0.0671 0.327561,-0.0671 0.265735,0 0.700613,0.23835 2.304054,1.26284 1.087071,0.69456 2.009256,1.30608 2.0493,1.35892 0.04004,0.0529 0.07349,0.19697 0.07432,0.32027 0.0013,0.18192 -0.07321,0.24974 -0.394879,0.35975 -0.218018,0.0746 -0.396396,0.17992 -0.396396,0.23411 0,0.187 1.83497,1.69927 2.451661,2.0205 0.34008,0.17716 0.975553,0.4356 1.412162,0.57433 l 0.793835,0.25225 v -3.01893 -3.01892 h -1.786581 -1.78658 l 0.02757,-1.18636 0.02757,-1.18636 1.75901,-0.0236 1.759009,-0.0236 v -0.50634 c 0,-0.46703 -0.01908,-0.51051 -0.24573,-0.56004 -0.403483,-0.0882 -1.261161,-0.55944 -1.716494,-0.94318 -1.16992,-0.98597 -1.683513,-2.41804 -1.414336,-3.94366 0.202499,-1.1477 0.854856,-2.09029 1.932243,-2.7919 0.689523,-0.44904 1.039985,-0.50445 3.228101,-0.51039 2.388396,-0.006 2.927961,0.1373 3.929453,1.04721 1.374718,1.24902 1.709563,3.42889 0.779468,5.07441 -0.433892,0.76763 -1.349332,1.54281 -2.277347,1.92843 l -0.64779,0.26917 v 0.47014 0.47013 h 1.62703 c 0.894867,0 1.697569,0.0236 1.783784,0.0524 0.132142,0.0441 0.156754,0.23381 0.156754,1.20793 v 1.15557 h -1.783784 -1.783784 v 3.01518 3.01518 l 0.551276,-0.16513 c 0.734911,-0.22014 1.671963,-0.6393 2.24221,-1.00297 0.507257,-0.32349 1.864172,-1.55001 1.864172,-1.68502 0,-0.0461 -0.177924,-0.14901 -0.395388,-0.22853 -0.340927,-0.12467 -0.395528,-0.18174 -0.396397,-0.41433 -9.31e-4,-0.25178 0.135815,-0.35668 2.05289,-1.57463 1.656719,-1.05254 2.116645,-1.30488 2.378378,-1.30488 0.178465,0 0.324482,0.0302 0.324482,0.0671 0,0.0369 0.133783,0.97094 0.297297,2.07569 0.163513,1.10475 0.297297,2.16171 0.297297,2.3488 0,0.33215 -0.0083,0.34017 -0.351768,0.34017 -0.193472,0 -0.477902,-0.0568 -0.632066,-0.1262 l -0.280298,-0.1262 -0.456515,0.59773 c -0.577907,0.75668 -1.590064,1.69324 -2.432269,2.25061 -1.005414,0.66537 -2.673822,1.34587 -3.963817,1.61673 l -1.099178,0.23079 -1.98e-4,0.37098 c -1.99e-4,0.52083 -0.217202,0.84559 -0.615984,0.92196 -0.563295,0.10787 -1.90394,0.13895 -2.059846,0.0477 z m 1.441037,-16.64515 c 0.738443,-0.29204 1.247276,-1.03748 1.036947,-1.51914 -0.261255,-0.59827 -0.946019,-1.07967 -1.535777,-1.07967 -0.911868,0 -1.925212,1.01996 -1.646793,1.65754 0.218254,0.4998 1.054153,1.09297 1.546929,1.09774 0.109009,0.001 0.378421,-0.0694 0.598694,-0.15647 z"
         style="fill:#000000;stroke-width:0.09246813" />
      <path
         inkscape:connector-curvature="0"
         id="path855-2"
         d="m 100.59371,-41.63507 c -0.0818,-0.0478 -0.25126,-0.0876 -0.37668,-0.0883 -0.278872,-0.002 -0.515212,-0.43352 -0.515212,-0.94152 v -0.34178 l -0.56982,-0.0979 c -2.81117,-0.48303 -5.36172,-1.94328 -6.879438,-3.93865 -0.38104,-0.50096 -0.45318,-0.55477 -0.6756,-0.50393 -0.13696,0.0313 -0.43855,0.0768 -0.67019,0.10112 l -0.42117,0.0442 v -0.34886 c 0,-0.19187 0.13378,-1.25274 0.2973,-2.35748 0.16351,-1.10475 0.29729,-2.03881 0.29729,-2.07569 0,-0.0369 0.14741,-0.0671 0.32757,-0.0671 0.26573,0 0.70061,0.23835 2.304048,1.26284 1.08707,0.69456 2.00926,1.30608 2.0493,1.35892 0.04,0.0529 0.0735,0.19697 0.0743,0.32027 0.001,0.18192 -0.0732,0.24974 -0.39488,0.35975 -0.21802,0.0746 -0.3964,0.17992 -0.3964,0.23411 0,0.187 1.83497,1.69927 2.45167,2.0205 0.34008,0.17716 0.97555,0.4356 1.41216,0.57433 l 0.79383,0.25225 v -3.01893 -3.01892 h -1.78658 -1.78658 l 0.0276,-1.18636 0.0276,-1.18636 1.75901,-0.0236 1.75901,-0.0236 v -0.50634 c 0,-0.46703 -0.0191,-0.51051 -0.24573,-0.56004 -0.40348,-0.0882 -1.26116,-0.55943 -1.71649,-0.94317 -1.16992,-0.98597 -1.68352,-2.41804 -1.41434,-3.94366 0.2025,-1.1477 0.85486,-2.09029 1.93224,-2.7919 0.68953,-0.44904 1.03999,-0.50445 3.228102,-0.51039 2.3884,-0.006 2.92797,0.1373 3.92946,1.04721 1.37472,1.24902 1.70956,3.42889 0.77947,5.07441 -0.4339,0.76763 -1.34934,1.54281 -2.27735,1.92843 l -0.64779,0.26917 v 0.47014 0.47013 h 1.62703 c 0.89487,0 1.69757,0.0236 1.78378,0.0524 0.13214,0.0441 0.15676,0.23381 0.15676,1.20793 v 1.15557 h -1.78379 -1.78378 v 3.01518 3.01518 l 0.55127,-0.16513 c 0.73492,-0.22014 1.67197,-0.6393 2.24221,-1.00297 0.50726,-0.32349 1.86418,-1.55001 1.86418,-1.68502 0,-0.0461 -0.17793,-0.14901 -0.39539,-0.22853 -0.34093,-0.12467 -0.39553,-0.18174 -0.3964,-0.41433 -9.2e-4,-0.25178 0.13582,-0.35668 2.05289,-1.57463 1.65672,-1.05254 2.11665,-1.30488 2.37838,-1.30488 0.17846,0 0.32448,0.0302 0.32448,0.0671 0,0.0369 0.13378,0.97094 0.2973,2.07569 0.16351,1.10475 0.2973,2.16171 0.2973,2.3488 0,0.33215 -0.008,0.34017 -0.35177,0.34017 -0.19347,0 -0.4779,-0.0568 -0.63207,-0.1262 l -0.2803,-0.1262 -0.45651,0.59773 c -0.57791,0.75668 -1.59007,1.69324 -2.43227,2.25061 -1.00541,0.66537 -2.67382,1.34587 -3.96382,1.61673 l -1.09918,0.23079 -1.9e-4,0.37098 c -2e-4,0.52083 -0.21721,0.84559 -0.61599,0.92196 -0.56329,0.10787 -1.90394,0.13895 -2.05984,0.0477 z m 1.44104,-16.64515 c 0.73844,-0.29204 1.24727,-1.03748 1.03694,-1.51914 -0.26125,-0.59827 -0.94602,-1.07967 -1.53577,-1.07967 -0.91187,0 -1.925222,1.01996 -1.646802,1.65754 0.218262,0.4998 1.054162,1.09297 1.546932,1.09774 0.10901,10e-4 0.37842,-0.0694 0.5987,-0.15647 z"
         style="fill:#000000;stroke-width:0.09246813" />
      <path
         inkscape:connector-curvature="0"
         id="path855-2-6"
         d="m 81.419014,9.3321025 c -0.0818,-0.0478 -0.25126,-0.0876 -0.37668,-0.0883 -0.27887,-0.002 -0.51521,-0.43352 -0.51521,-0.94152 v -0.34178 l -0.56982,-0.0979 c -2.81117,-0.48303 -5.36172,-1.94328 -6.87944,-3.93865 -0.38104,-0.50096 -0.45318,-0.55477 -0.6756,-0.50393 -0.13696,0.0313 -0.43855,0.0768 -0.67019,0.10112 l -0.42117,0.0442 v -0.34886 c 0,-0.19187 0.13378,-1.25274 0.2973,-2.35747997 0.16351,-1.10475 0.29729,-2.03881003 0.29729,-2.07569003 0,-0.0369 0.14741,-0.0671 0.32757,-0.0671 0.26573,0 0.70061,0.23835 2.30405,1.26284003 1.08707,0.69456 2.00926,1.30607997 2.0493,1.35891997 0.04,0.0529 0.0735,0.19697 0.0743,0.32027 0.001,0.18192 -0.0732,0.24974 -0.39488,0.35975 -0.21802,0.0746 -0.3964,0.17992 -0.3964,0.23411 0,0.187 1.83497,1.69927 2.45167,2.0205 0.34008,0.17716 0.97555,0.4356 1.41216,0.57433 l 0.79383,0.25225 v -3.01893 -3.01891997 h -1.78658 -1.78658 l 0.0276,-1.18636003 0.0276,-1.18636 1.75901,-0.0236 1.75901,-0.0236 v -0.50634 c 0,-0.46703 -0.0191,-0.51051 -0.24573,-0.56004 -0.40348,-0.0882 -1.26116,-0.55942 -1.71649,-0.94316 -1.16992,-0.98597 -1.68352,-2.41804 -1.41434,-3.94366 0.2025,-1.1476995 0.85486,-2.0902895 1.93224,-2.7918995 0.68953,-0.44904 1.03999,-0.50445 3.2281,-0.51039 2.3884,-0.006 2.927974,0.1373 3.929464,1.04721 1.37472,1.24902 1.70956,3.4288895 0.77947,5.0744095 -0.4339,0.76763 -1.34934,1.54281 -2.277354,1.92843 l -0.64779,0.26917 v 0.47014 0.47013 h 1.627034 c 0.89487,0 1.69757,0.0236 1.78378,0.0524 0.13214,0.0441 0.15676,0.23381 0.15676,1.20793 v 1.15557003 h -1.78379 -1.783784 v 3.01517997 3.01518 l 0.55127,-0.16513 c 0.734924,-0.22014 1.671974,-0.6393 2.242214,-1.00297 0.50726,-0.32349 1.86418,-1.55001 1.86418,-1.68502 0,-0.0461 -0.17793,-0.14901 -0.39539,-0.22853 -0.34093,-0.12467 -0.39553,-0.18174 -0.3964,-0.41433 -9.2e-4,-0.25178 0.13582,-0.35668 2.05289,-1.57462997 1.65672,-1.05254003 2.11665,-1.30488003 2.37838,-1.30488003 0.17846,0 0.32448,0.0302 0.32448,0.0671 0,0.0369 0.13378,0.97094003 0.2973,2.07569003 0.16351,1.10474997 0.2973,2.16170997 0.2973,2.34879997 0,0.33215 -0.008,0.34017 -0.35177,0.34017 -0.19347,0 -0.4779,-0.0568 -0.63207,-0.1262 l -0.2803,-0.1262 -0.45651,0.59773 c -0.57791,0.75668 -1.59007,1.69324 -2.43227,2.25061 -1.00541,0.66537 -2.67382,1.34587 -3.96382,1.61673 l -1.099184,0.23079 -1.9e-4,0.37098 c -2e-4,0.52083 -0.21721,0.84559 -0.61599,0.92196 -0.56329,0.10787 -1.90394,0.13895 -2.05984,0.0477 z m 1.44104,-16.64515 c 0.73844,-0.29204 1.24727,-1.03748 1.03694,-1.51914 -0.26125,-0.59827 -0.94602,-1.07967 -1.53577,-1.07967 -0.91187,0 -1.92522,1.01996 -1.6468,1.65754 0.21826,0.4998 1.05416,1.09297 1.54693,1.09774 0.10901,0.001 0.37842,-0.0694 0.5987,-0.15647 z"
         style="fill:#000000;stroke-width:0.09246813" />
      <path
         inkscape:connector-curvature="0"
         id="path855-2-6-0"
         d="m 187.65841,-102.55624 c -0.0818,-0.0478 -0.25126,-0.0876 -0.37668,-0.0883 -0.27887,-0.002 -0.51521,-0.43352 -0.51521,-0.94152 v -0.34178 l -0.56982,-0.0979 c -2.81117,-0.48303 -5.36172,-1.94328 -6.87944,-3.93865 -0.38104,-0.50096 -0.45318,-0.55477 -0.6756,-0.50393 -0.13696,0.0313 -0.43855,0.0768 -0.67019,0.10112 l -0.42117,0.0442 v -0.34886 c 0,-0.19187 0.13378,-1.25274 0.2973,-2.35748 0.16351,-1.10475 0.29729,-2.03881 0.29729,-2.07569 0,-0.0369 0.14741,-0.0671 0.32757,-0.0671 0.26573,0 0.70061,0.23835 2.30405,1.26284 1.08707,0.69456 2.00926,1.30608 2.0493,1.35892 0.04,0.0529 0.0735,0.19697 0.0743,0.32027 10e-4,0.18192 -0.0732,0.24974 -0.39488,0.35975 -0.21802,0.0746 -0.3964,0.17992 -0.3964,0.23411 0,0.187 1.83497,1.69927 2.45167,2.0205 0.34008,0.17716 0.97555,0.4356 1.41216,0.57433 l 0.79383,0.25225 v -3.01893 -3.01892 h -1.78658 -1.78658 l 0.0276,-1.18636 0.0276,-1.18636 1.75901,-0.0236 1.75901,-0.0236 v -0.50633 c 0,-0.46703 -0.0191,-0.51051 -0.24573,-0.56004 -0.40348,-0.0882 -1.26116,-0.55942 -1.71649,-0.94316 -1.16992,-0.98597 -1.68352,-2.41804 -1.41434,-3.94366 0.2025,-1.1477 0.85486,-2.09029 1.93224,-2.7919 0.68953,-0.44904 1.03999,-0.50445 3.2281,-0.51039 2.3884,-0.006 2.92797,0.1373 3.92946,1.04721 1.37472,1.24902 1.70956,3.42889 0.77947,5.07441 -0.4339,0.76763 -1.34934,1.54281 -2.27735,1.92843 l -0.64779,0.26917 v 0.47014 0.47013 h 1.62703 c 0.89487,0 1.69757,0.0236 1.78378,0.0524 0.13214,0.0441 0.15676,0.23381 0.15676,1.20793 v 1.15557 h -1.78379 -1.78378 v 3.01518 3.01518 l 0.55127,-0.16513 c 0.73492,-0.22014 1.67197,-0.6393 2.24221,-1.00297 0.50726,-0.32349 1.86418,-1.55001 1.86418,-1.68502 0,-0.0461 -0.17793,-0.14901 -0.39539,-0.22853 -0.34093,-0.12467 -0.39553,-0.18174 -0.3964,-0.41433 -9.2e-4,-0.25178 0.13582,-0.35668 2.05289,-1.57463 1.65672,-1.05254 2.11665,-1.30488 2.37838,-1.30488 0.17846,0 0.32448,0.0302 0.32448,0.0671 0,0.0369 0.13378,0.97094 0.2973,2.07569 0.16351,1.10475 0.2973,2.16171 0.2973,2.3488 0,0.33215 -0.008,0.34017 -0.35177,0.34017 -0.19347,0 -0.4779,-0.0568 -0.63207,-0.1262 l -0.2803,-0.1262 -0.45651,0.59773 c -0.57791,0.75668 -1.59007,1.69324 -2.43227,2.25061 -1.00541,0.66537 -2.67382,1.34587 -3.96382,1.61673 l -1.09918,0.23079 -1.9e-4,0.37098 c -2e-4,0.52083 -0.21721,0.84559 -0.61599,0.92196 -0.56329,0.10787 -1.90394,0.13895 -2.05984,0.0477 z m 1.44104,-16.64515 c 0.73844,-0.29204 1.24727,-1.03748 1.03694,-1.51914 -0.26125,-0.59827 -0.94602,-1.07967 -1.53577,-1.07967 -0.91187,0 -1.92522,1.01996 -1.6468,1.65754 0.21826,0.4998 1.05416,1.09297 1.54693,1.09774 0.10901,0.001 0.37842,-0.0694 0.5987,-0.15647 z"
         style="fill:#000000;stroke-width:0.09246813" />
      <path
         inkscape:connector-curvature="0"
         id="path855-2-6-0-8"
         d="m 151.46808,281.55438 c -0.0818,-0.0478 -0.25126,-0.0876 -0.37668,-0.0883 -0.27887,-0.002 -0.51521,-0.43352 -0.51521,-0.94152 v -0.34178 l -0.56982,-0.0979 c -2.81117,-0.48303 -5.36172,-1.94328 -6.87944,-3.93865 -0.38104,-0.50096 -0.45318,-0.55477 -0.6756,-0.50393 -0.13696,0.0313 -0.43855,0.0768 -0.67019,0.10112 l -0.42117,0.0442 v -0.34885 c 0,-0.19187 0.13378,-1.25274 0.2973,-2.35748 0.16351,-1.10475 0.29729,-2.03881 0.29729,-2.07569 0,-0.0369 0.14741,-0.0671 0.32757,-0.0671 0.26573,0 0.70061,0.23835 2.30405,1.26284 1.08707,0.69456 2.00926,1.30608 2.0493,1.35892 0.04,0.0529 0.0735,0.19697 0.0743,0.32027 0.001,0.18192 -0.0732,0.24974 -0.39488,0.35975 -0.21802,0.0746 -0.3964,0.17992 -0.3964,0.23411 0,0.187 1.83497,1.69926 2.45167,2.02049 0.34008,0.17716 0.97555,0.4356 1.41216,0.57433 l 0.79383,0.25225 v -3.01892 -3.01892 h -1.78658 -1.78658 l 0.0276,-1.18636 0.0276,-1.18636 1.75901,-0.0236 1.75901,-0.0236 v -0.50632 c 0,-0.46703 -0.0191,-0.51051 -0.24573,-0.56004 -0.40348,-0.0882 -1.26116,-0.55942 -1.71649,-0.94316 -1.16992,-0.98597 -1.68352,-2.41804 -1.41434,-3.94366 0.2025,-1.1477 0.85486,-2.09029 1.93224,-2.7919 0.68953,-0.44904 1.03999,-0.50445 3.2281,-0.51039 2.3884,-0.006 2.92797,0.1373 3.92946,1.04721 1.37472,1.24902 1.70956,3.42889 0.77947,5.07441 -0.4339,0.76763 -1.34934,1.54281 -2.27735,1.92843 l -0.64779,0.26917 v 0.47014 0.47013 h 1.62703 c 0.89487,0 1.69757,0.0236 1.78378,0.0524 0.13214,0.0441 0.15676,0.23381 0.15676,1.20793 v 1.15557 h -1.78379 -1.78378 v 3.01518 3.01517 l 0.55127,-0.16513 c 0.73492,-0.22014 1.67197,-0.6393 2.24221,-1.00297 0.50726,-0.32349 1.86418,-1.55 1.86418,-1.68501 0,-0.0461 -0.17793,-0.14901 -0.39539,-0.22853 -0.34093,-0.12467 -0.39553,-0.18174 -0.3964,-0.41433 -9.3e-4,-0.25178 0.13582,-0.35668 2.05289,-1.57463 1.65672,-1.05254 2.11665,-1.30488 2.37838,-1.30488 0.17846,0 0.32448,0.0302 0.32448,0.0671 0,0.0369 0.13378,0.97094 0.2973,2.07569 0.16351,1.10475 0.2973,2.16171 0.2973,2.3488 0,0.33214 -0.008,0.34016 -0.35177,0.34016 -0.19347,0 -0.4779,-0.0568 -0.63207,-0.1262 l -0.2803,-0.12619 -0.45651,0.59772 c -0.57791,0.75668 -1.59007,1.69324 -2.43227,2.25061 -1.00541,0.66537 -2.67382,1.34587 -3.96382,1.61673 l -1.09918,0.23079 -1.9e-4,0.37098 c -2e-4,0.52083 -0.21721,0.84559 -0.61599,0.92196 -0.56329,0.10787 -1.90394,0.13895 -2.05984,0.0477 z m 1.44104,-16.64514 c 0.73844,-0.29204 1.24727,-1.03748 1.03694,-1.51914 -0.26125,-0.59827 -0.94602,-1.07967 -1.53577,-1.07967 -0.91187,0 -1.92522,1.01996 -1.6468,1.65754 0.21826,0.4998 1.05416,1.09297 1.54693,1.09774 0.10901,10e-4 0.37842,-0.0694 0.5987,-0.15647 z"
         style="fill:#000000;stroke-width:0.09246813" />
      <path
         inkscape:connector-curvature="0"
         id="path855-2-6-0-8-0"
         d="m 132.27946,255.58748 c -0.0818,-0.0478 -0.25126,-0.0876 -0.37668,-0.0883 -0.27887,-0.002 -0.51521,-0.43352 -0.51521,-0.94152 v -0.34178 l -0.56982,-0.0979 c -2.81117,-0.48303 -5.36172,-1.94328 -6.87944,-3.93865 -0.38104,-0.50096 -0.45318,-0.55477 -0.6756,-0.50393 -0.13696,0.0313 -0.43855,0.0768 -0.67019,0.10112 l -0.42117,0.0442 v -0.34885 c 0,-0.19187 0.13378,-1.25274 0.2973,-2.35748 0.16351,-1.10475 0.29729,-2.03881 0.29729,-2.07569 0,-0.0369 0.14741,-0.0671 0.32757,-0.0671 0.26573,0 0.70061,0.23835 2.30405,1.26284 1.08707,0.69456 2.00926,1.30608 2.0493,1.35892 0.04,0.0529 0.0735,0.19697 0.0743,0.32027 0.001,0.18192 -0.0732,0.24974 -0.39488,0.35975 -0.21802,0.0746 -0.3964,0.17992 -0.3964,0.23411 0,0.187 1.83497,1.69926 2.45167,2.02049 0.34008,0.17716 0.97555,0.4356 1.41216,0.57433 l 0.79383,0.25225 v -3.01892 -3.01892 h -1.78658 -1.78658 l 0.0276,-1.18636 0.0276,-1.18636 1.75901,-0.0236 1.75901,-0.0236 v -0.50632 c 0,-0.46703 -0.0191,-0.51051 -0.24573,-0.56004 -0.40348,-0.0882 -1.26116,-0.55941 -1.71649,-0.94315 -1.16992,-0.98597 -1.68352,-2.41804 -1.41434,-3.94366 0.2025,-1.1477 0.85486,-2.09029 1.93224,-2.7919 0.68953,-0.44904 1.03999,-0.50445 3.2281,-0.51039 2.3884,-0.006 2.92797,0.1373 3.92946,1.04721 1.37472,1.24902 1.70956,3.42889 0.77947,5.07441 -0.4339,0.76763 -1.34934,1.54281 -2.27735,1.92843 l -0.64779,0.26917 v 0.47014 0.47013 h 1.62703 c 0.89487,0 1.69757,0.0236 1.78378,0.0524 0.13214,0.0441 0.15676,0.23381 0.15676,1.20793 v 1.15557 h -1.78379 -1.78378 v 3.01518 3.01517 l 0.55127,-0.16513 c 0.73492,-0.22014 1.67197,-0.6393 2.24221,-1.00297 0.50726,-0.32349 1.86418,-1.55 1.86418,-1.68501 0,-0.0461 -0.17793,-0.14901 -0.39539,-0.22853 -0.34093,-0.12467 -0.39553,-0.18174 -0.3964,-0.41433 -9.3e-4,-0.25178 0.13582,-0.35668 2.05289,-1.57463 1.65672,-1.05254 2.11665,-1.30488 2.37838,-1.30488 0.17846,0 0.32448,0.0302 0.32448,0.0671 0,0.0369 0.13378,0.97094 0.2973,2.07569 0.16351,1.10475 0.2973,2.16171 0.2973,2.3488 0,0.33214 -0.008,0.34016 -0.35177,0.34016 -0.19347,0 -0.4779,-0.0568 -0.63207,-0.1262 l -0.2803,-0.12619 -0.45651,0.59772 c -0.57791,0.75668 -1.59007,1.69324 -2.43227,2.25061 -1.00541,0.66537 -2.67382,1.34587 -3.96382,1.61673 l -1.09918,0.23079 -1.9e-4,0.37098 c -2e-4,0.52083 -0.21721,0.84559 -0.61599,0.92196 -0.56329,0.10787 -1.90394,0.13895 -2.05984,0.0477 z m 1.44104,-16.64514 c 0.73844,-0.29204 1.24727,-1.03748 1.03694,-1.51914 -0.26125,-0.59827 -0.94602,-1.07967 -1.53577,-1.07967 -0.91187,0 -1.92522,1.01996 -1.6468,1.65754 0.21826,0.4998 1.05416,1.09297 1.54693,1.09774 0.10901,0.001 0.37842,-0.0694 0.5987,-0.15647 z"
         style="fill:#000000;stroke-width:0.09246813" />
    </g>
    <path
       style="fill:#000000;stroke-width:0.12542023"
       d="m 212.97198,262.61834 c -0.046,-0.0743 -0.19312,-0.13516 -0.32699,-0.13516 -0.22615,0 -0.24344,-0.0974 -0.24344,-1.37262 0,-1.73763 0.0686,-1.82879 1.80151,-2.39337 l 1.23712,-0.40309 -0.0824,-4.46867 c -0.0453,-2.45775 -0.11221,-4.67516 -0.14878,-4.9275 l -0.0665,-0.45886 -1.08836,0.29136 c -0.59859,0.16026 -3.23301,0.88534 -5.8543,1.61125 -5.95551,1.64932 -5.41026,1.52421 -5.6402,1.29428 -0.15455,-0.15456 -0.19185,-0.54568 -0.19185,-2.01201 0,-1.07812 0.0511,-1.85174 0.12545,-1.89765 0.069,-0.0426 0.1271,-0.17295 0.12917,-0.28958 0.003,-0.15131 1.77844,-1.14056 6.19397,-3.4507 l 6.19024,-3.23858 -0.0666,-3.97862 c -0.0735,-4.39195 -0.0553,-4.54062 0.66173,-5.37827 0.51456,-0.60117 0.86568,-0.68667 2.81989,-0.68667 2.32636,0 2.69536,0.171 3.29844,1.52839 0.23579,0.53071 0.24539,0.76642 0.18499,4.54236 l -0.0637,3.98263 6.24054,3.2744 c 5.88511,3.08798 6.24485,3.29622 6.317,3.65701 0.0992,0.49625 0.0995,3.65694 3e-4,3.91539 -0.0419,0.10906 -0.16886,0.19691 -0.2822,0.19511 -0.11332,0 -2.94334,-0.75696 -6.28893,-1.6781 l -6.08288,-1.67474 -0.0792,0.45522 c -0.0436,0.25039 -0.11969,2.46642 -0.16909,4.92454 l -0.0899,4.46932 1.23516,0.40243 c 1.7307,0.56384 1.79955,0.65539 1.79955,2.39272 0,1.23818 -0.022,1.37262 -0.22576,1.37262 -0.12417,0 -0.28905,0.0633 -0.36642,0.14065 -0.13936,0.13932 -0.64487,0.11708 -2.54332,-0.11197 -0.44839,-0.0541 -1.25856,-0.26171 -1.80036,-0.46135 l -0.98513,-0.36298 -1.0843,0.35999 c -1.4857,0.49326 -4.29091,0.85197 -4.46464,0.5709 z"
       id="path868-5"
       inkscape:connector-curvature="0" />
  </g>
</svg>
